<svg xmlns="http://www.w3.org/2000/svg" viewBox="0 0 1500 1000"><defs><style>.cls-1{isolation:isolate;}.cls-2{fill:#97cbff;}.cls-3,.cls-57{fill:#fdffff;}.cls-4{fill:#78bbff;}.cls-16,.cls-5,.cls-56{fill:none;stroke-linecap:round;stroke-linejoin:round;}.cls-5{stroke:#c8e2fc;stroke-width:8.75px;}.cls-6{fill:#ffc2b0;}.cls-7{fill:#d0e7f4;}.cls-8{fill:#4c73db;}.cls-9{fill:#3c5cb0;}.cls-10{fill:#2c4482;}.cls-11{fill:#4265c2;}.cls-12{fill:#8e3361;}.cls-13,.cls-43{fill:#88bdeb;}.cls-13{opacity:0.43;}.cls-13,.cls-30,.cls-47{mix-blend-mode:multiply;}.cls-14{fill:#d84177;}.cls-15{fill:#283d75;}.cls-16{stroke:#ffc2b0;stroke-width:13.31px;}.cls-17{fill:#67a2cf;}.cls-18{fill:#4264bf;}.cls-19{fill:#3856a6;}.cls-20{fill:#f1a32f;}.cls-21{fill:#ea8a6c;}.cls-22{fill:#ff5c97;}.cls-23{fill:#fff;}.cls-24{fill:#fcfeff;}.cls-25{fill:#715154;}.cls-26{fill:#af8080;}.cls-27{fill:#353c59;}.cls-28{fill:#d7e8f7;}.cls-29,.cls-30,.cls-33,.cls-47{fill:#a8c4e5;}.cls-30{opacity:0.52;}.cls-31{fill:#363656;}.cls-32{fill:#e3f2ff;opacity:0.65;}.cls-33{opacity:0.53;}.cls-34{fill:#e1eaf4;}.cls-35{fill:#dbefff;}.cls-36{fill:#97cbf2;}.cls-37{fill:#492817;}.cls-38{fill:#4367c7;}.cls-39{fill:#ebf7ff;}.cls-40{fill:#99c4eb;}.cls-41{fill:#c7e0f5;}.cls-42{fill:#5980ab;}.cls-44{fill:#e1eef9;}.cls-45{fill:#c8d8e6;}.cls-46{fill:#353559;}.cls-48{fill:#ef487c;}.cls-49{fill:#45446c;}.cls-50{fill:#565682;}.cls-51{fill:#7a9fff;}.cls-52{fill:#6b6b9b;}.cls-53{fill:#4a70d6;opacity:0.27;}.cls-54{fill:#c9457b;}.cls-55{fill:#ff579c;}.cls-56{stroke:#fff;stroke-width:15.06px;}.cls-57{opacity:0.23;}.cls-58{fill:#24286b;}</style></defs><title>Plan de travail 2</title><g class="cls-1"><g id="background"><rect class="cls-2" width="1500" height="1000" rx="4.08"/><path class="cls-3" d="M132.82,489.21c.08-1.8.12-5.92.12-8.4v-2.1c0-2.2,0-3.24-.12-4.84l-2.81-.36V472l6.68-2.54.65.42.42,4.53v6.37c0,2.48,0,6.6.12,8.4Zm7.36-1.64v1.64h-9.87v-1.64l4-.8h2Zm9.68-10.94v4.18c0,2.56,0,6.6.12,8.4h-5.06c.08-1.8.12-5.84.12-8.4V477c0-3.13-.79-4.18-2.78-4.18-1.71,0-3.5.93-5.42,2.84h-1.11v-2.19h2.38l-1.62.92c2.35-3.29,5.08-4.92,7.94-4.92C147.88,469.49,149.86,471.69,149.86,476.63Zm-1.48,10.14,4,.8v1.64h-9.89v-1.64l4-.8Z"/><path class="cls-3" d="M157.86,479.63c0-6.39,4.47-10.14,9.64-10.14s9.65,3.71,9.65,10.14-4.28,10.14-9.65,10.14S157.86,486,157.86,479.63Zm14.08,0c0-5.52-1.59-8.23-4.44-8.23s-4.43,2.71-4.43,8.23,1.53,8.15,4.43,8.15S171.94,485.21,171.94,479.67Z"/><path class="cls-3" d="M189.59,482.39c0,3,.92,4,2.69,4s3.81-1.31,5.4-3.15h1.2v2.35h-2.34l1.34-.88c-2.09,3.33-4.78,5-7.73,5-3.32,0-5.46-1.92-5.41-7.2l.14-10.66,1.06,1-3.65-.8v-1.54l7-.85.52.42-.2,5.63Zm7.7,7.19-.45-4.69.14-13,1.06,1-3.59-.8v-1.47l6.84-.92.52.42-.12,5.63v12.63l-1.83-1.74,4.25.9v1.64Z"/><path class="cls-3" d="M211.2,472.4l-3.78-.69v-1.65h10.5v1.65l-4.25.69Zm2.85-2.34,5.72,15.23-2.17,3.23L224,470.06h2.48l-7.35,19.3h-2.36l-8.08-19.3Zm9.91,2.3-3.66-.65v-1.65h7.57v1.65l-3.05.65Z"/><path class="cls-3" d="M249.3,477.54a8.43,8.43,0,0,1-.25,2.2H233.83v-1.9h8.49c1.92,0,2.39-.82,2.39-2.28,0-2.45-1.58-4.13-3.56-4.13s-4.33,2-4.33,7.73c0,5,2.49,7.43,6,7.43A6.63,6.63,0,0,0,248,484.1l1.16,1a8.45,8.45,0,0,1-8,4.65c-5.6,0-9.41-3.76-9.41-10s4.66-10.25,9.72-10.25C246.16,469.49,249.3,472.7,249.3,477.54Z"/><path class="cls-3" d="M261.48,459.89l.6.36-.16,5.64v14.92q0,4.2.12,8.4H257q.12-4.2.12-8.4V463.64l-2.89-.4v-1.55Zm3.24,27.68v1.64h-10.4v-1.64l4.17-.8h1.93Z"/><path class="cls-3" d="M276.88,459.89l.6.36-.16,5.64v14.92q0,4.2.12,8.4h-5.05q.12-4.2.12-8.4V463.64l-2.89-.4v-1.55Zm3.24,27.68v1.64h-10.4v-1.64l4.17-.8h1.93Z"/><path class="cls-3" d="M303.14,477.54a8.43,8.43,0,0,1-.25,2.2H287.67v-1.9h8.49c1.92,0,2.39-.82,2.39-2.28,0-2.45-1.58-4.13-3.56-4.13s-4.32,2-4.32,7.73c0,5,2.48,7.43,6,7.43a6.63,6.63,0,0,0,5.21-2.49l1.16,1a8.44,8.44,0,0,1-8,4.65c-5.6,0-9.41-3.76-9.41-10s4.66-10.25,9.72-10.25C300,469.49,303.14,472.7,303.14,477.54Z"/><path class="cls-3" d="M323.75,478.71c0-2.2,0-3.24-.12-4.84l-2.82-.36V472l6.66-2.54.63.39.29,3.25.17.35V486l-.12.37v3.43c0,2.66,0,5.56.12,8.74h-4.93c.08-3.18.12-6,.12-8.69Zm7.9,18.18v1.65H320.93v-1.65l4.17-.8h2.37Zm.74-24.55c-1.8,0-3.7,1.48-5.8,3.56l-.36-.69c2.31-3.92,4.94-5.72,8.07-5.72,4.3,0,7.72,3.65,7.72,10.05s-3.79,10.23-8.38,10.23c-3,0-5.32-1.59-7.26-5.74l.36-.68c1.86,2.42,3.4,3.62,5.37,3.62,2.7,0,4.79-2.26,4.79-7.2S335,472.34,332.39,472.34Z"/><path class="cls-3" d="M354.44,459.89l.6.36-.16,5.64v14.92q0,4.2.12,8.4H350q.12-4.2.12-8.4V463.64l-2.89-.4v-1.55Zm3.23,27.68v1.64H347.28v-1.64l4.17-.8h1.93Z"/><path class="cls-3" d="M369.94,478.39c1.67-.54,4.35-1.28,6.29-1.68v1.56a36.53,36.53,0,0,0-5.29,1.6c-2.69,1.07-3.48,2.51-3.48,4a2.63,2.63,0,0,0,2.81,3c1.08,0,1.79-.42,3.68-1.78l1.21-.91.49.71-1.43,1.5c-2.16,2.22-3.46,3.4-6.14,3.4-3,0-5.3-1.75-5.3-5.06C362.78,482.16,364.17,480.26,369.94,478.39Zm3.81,7.34v-9.57c0-3.73-.9-4.73-3.5-4.73a11.42,11.42,0,0,0-3.67.64l2.19-1.4-.66,3.1c-.23,1.93-1.18,2.79-2.5,2.79a2.07,2.07,0,0,1-2.25-1.81c.48-3.19,3.57-5.26,8.47-5.26,4.63,0,6.64,2,6.64,7.23v8.73c0,1.28.45,1.79,1.19,1.79a1.68,1.68,0,0,0,1.38-.88l.94.79a4.15,4.15,0,0,1-4.12,2.54A3.86,3.86,0,0,1,373.75,485.73Z"/><path class="cls-3" d="M395.37,487.12a4.08,4.08,0,0,0,2.44-1l.95,1a5.79,5.79,0,0,1-5.26,2.63c-3.2,0-5.12-1.53-5.12-5,0-1.18,0-2.14,0-3.7v-8.55h-3v-2.05l4.84-.63-2,1.47,1.88-6.73h3.21l-.2,7.1v12.65C393.23,486.26,394.1,487.12,395.37,487.12Zm2.7-17.06v2.41h-7.23v-2.41Z"/><path class="cls-3" d="M420.66,477.54a8.89,8.89,0,0,1-.25,2.2H405.19v-1.9h8.49c1.92,0,2.39-.82,2.39-2.28,0-2.45-1.58-4.13-3.56-4.13s-4.33,2-4.33,7.73c0,5,2.49,7.43,6,7.43a6.63,6.63,0,0,0,5.21-2.49l1.16,1a8.45,8.45,0,0,1-8,4.65c-5.6,0-9.41-3.76-9.41-10s4.65-10.25,9.72-10.25C417.52,469.49,420.66,472.7,420.66,477.54Z"/><path class="cls-3" d="M429.07,472.47h-3v-2.05l4.64-.6-1.67.88c.4-4.6,1.4-6.94,3.13-8.67a8.38,8.38,0,0,1,6.13-2.54c2.06,0,3.86.66,4.3,2.5a2.36,2.36,0,0,1-2.63,2.22c-1.18,0-2.19-.63-3.23-2l-1.46-1.42,3.64-.84.67,1.18a2.87,2.87,0,0,0-1.45-.5,4,4,0,0,0-3.16,2.12c-1,1.74-1.43,4.48-1.13,9.13v8.94q0,4.2.12,8.4H429q.12-4.2.12-8.4Zm8.24,15.1v1.64h-11v-1.64l4.22-.8H433Zm1.42-17.51v2.41h-7.24v-2.41Z"/><path class="cls-3" d="M443.26,479.63c0-6.39,4.47-10.14,9.64-10.14s9.65,3.71,9.65,10.14-4.28,10.14-9.65,10.14S443.26,486,443.26,479.63Zm14.08,0c0-5.52-1.59-8.23-4.44-8.23s-4.43,2.71-4.43,8.23,1.53,8.15,4.43,8.15S457.34,485.21,457.34,479.67Z"/><path class="cls-3" d="M471.06,480.81v-2.12c0-2.2,0-3.22-.12-4.82l-2.82-.36V472l6.69-2.54.65.42.42,4.95v5.95c0,2.48,0,6.6.12,8.4h-5.06C471,487.41,471.06,483.29,471.06,480.81Zm-2.61,6.76,4.1-.8h2.53l4.11.8v1.64H468.45Zm5.14-12.1h2.64l-.76.69c1-4.32,3.6-6.67,6-6.67a3.14,3.14,0,0,1,3.16,2.17c-.05,2-1,3.1-2.59,3.1a3.58,3.58,0,0,1-2.75-1.42l-1.12-1.23,1.78.1a9.46,9.46,0,0,0-4.1,6l-2.24-.15Z"/><path class="cls-3" d="M491.66,489.21c.08-1.8.12-5.92.12-8.4v-2.1c0-2.2,0-3.24-.12-4.84l-2.81-.36V472l6.68-2.54.65.42.42,4.53v6.37c0,2.48,0,6.6.12,8.4Zm7.36-1.64v1.64h-9.88v-1.64l4.05-.8h1.95Zm9.52-10.94v4.18c0,2.56,0,6.6.12,8.4h-5c.08-1.8.12-5.84.12-8.4V477.2c0-3.25-.75-4.36-2.83-4.36-1.84,0-3.53,1.12-5.25,2.84h-1.16v-2.19h2.28l-1.46.92c2.16-3.06,4.84-4.92,7.76-4.92C506.73,469.49,508.54,471.69,508.54,476.63Zm-1.42,10.14,3.84.8v1.64h-9.77v-1.64l3.95-.8Zm13.33-10.26v4.3c0,2.56,0,6.6.12,8.4h-5c.08-1.8.12-5.84.12-8.4v-3.66c0-3.38-.83-4.31-2.83-4.31-1.75,0-3.4.92-5.27,2.84h-1.2v-2h2.5l-1.74.77c2.46-3.56,5.05-4.92,7.83-4.92C518.61,469.49,520.45,471.65,520.45,476.51ZM519,486.77l3.89.8v1.64h-9.76v-1.64l3.85-.8Z"/><path class="cls-3" d="M546,477.54a8.39,8.39,0,0,1-.26,2.2H530.51v-1.9H539c1.92,0,2.39-.82,2.39-2.28,0-2.45-1.58-4.13-3.56-4.13s-4.33,2-4.33,7.73c0,5,2.49,7.43,6,7.43a6.63,6.63,0,0,0,5.21-2.49l1.16,1a8.46,8.46,0,0,1-8,4.65c-5.6,0-9.41-3.76-9.41-10s4.65-10.25,9.72-10.25C542.84,469.49,546,472.7,546,477.54Z"/><path class="cls-3" d="M131.1,556.11v-9.63h2.09v9.69c0,3.94,1.67,5.18,3.81,5.18s3.89-1.24,3.89-5.18v-9.69h2v9.63c0,5.27-2.54,7.07-5.89,7.07S131.1,561.38,131.1,556.11Z"/><path class="cls-3" d="M149,550.74h1.7l.17,1.75h.07a5.8,5.8,0,0,1,4.08-2c2.56,0,3.7,1.65,3.7,4.75v7.69h-2v-7.43c0-2.26-.69-3.23-2.29-3.23-1.25,0-2.11.63-3.32,1.87v8.79H149Z"/><path class="cls-3" d="M171.4,550.74h1.7l.18,2.21h.07a4.17,4.17,0,0,1,3.45-2.51,2.75,2.75,0,0,1,1.3.25l-.39,1.8a3.44,3.44,0,0,0-1.18-.2c-1,0-2.25.74-3.07,2.79v7.8H171.4Z"/><path class="cls-3" d="M180.8,556.83c0-4,2.67-6.39,5.46-6.39,3.1,0,4.85,2.22,4.85,5.7a7.49,7.49,0,0,1-.09,1.16h-8.19c.15,2.58,1.72,4.25,4,4.25a5.32,5.32,0,0,0,3-1l.74,1.34a7.13,7.13,0,0,1-4,1.26C183.38,563.18,180.8,560.82,180.8,556.83Zm8.49-1c0-2.43-1.09-3.76-3-3.76-1.71,0-3.23,1.37-3.48,3.76Zm-4.44-8.3,3.54-4.16,1.45,1.36-3.93,3.83Z"/><path class="cls-3" d="M194.63,561.5l1-1.36a5.45,5.45,0,0,0,3.58,1.44c1.6,0,2.39-.85,2.39-1.88,0-1.25-1.43-1.81-2.78-2.31-1.7-.62-3.62-1.46-3.62-3.51s1.56-3.44,4.19-3.44a6.16,6.16,0,0,1,3.78,1.36l-1,1.32a4.53,4.53,0,0,0-2.77-1.08c-1.53,0-2.23.81-2.23,1.74,0,1.15,1.32,1.59,2.69,2.11,1.76.66,3.71,1.37,3.71,3.68,0,2-1.57,3.61-4.44,3.61A7.32,7.32,0,0,1,194.63,561.5Z"/><path class="cls-3" d="M207.43,556.83c0-4,2.66-6.39,5.46-6.39,3.1,0,4.85,2.22,4.85,5.7a6.34,6.34,0,0,1-.1,1.16h-8.18c.15,2.58,1.72,4.25,4,4.25a5.35,5.35,0,0,0,3-1l.73,1.34a7.08,7.08,0,0,1-4,1.26C210,563.18,207.43,560.82,207.43,556.83Zm8.49-1c0-2.43-1.1-3.76-3-3.76-1.7,0-3.23,1.37-3.48,3.76Z"/><path class="cls-3" d="M221.5,559.73c0-2.65,2.28-4,7.46-4.53,0-1.57-.52-3.07-2.5-3.07a6.67,6.67,0,0,0-3.63,1.3L222,552a8.94,8.94,0,0,1,4.77-1.58c3,0,4.22,2,4.22,5v7.45h-1.7l-.17-1.45h-.07a6.42,6.42,0,0,1-4,1.75A3.3,3.3,0,0,1,221.5,559.73Zm7.46.19v-3.37c-4.07.49-5.45,1.48-5.45,3,0,1.38.94,1.94,2.13,1.94A5,5,0,0,0,229,559.92Z"/><path class="cls-3" d="M236.57,558.43v-7.69h2.05v7.43c0,2.26.69,3.23,2.29,3.23,1.25,0,2.11-.62,3.26-2v-8.61h2.05v12.14h-1.7l-.17-1.9h-.07a5.14,5.14,0,0,1-4,2.2C237.72,563.18,236.57,561.53,236.57,558.43Z"/><path class="cls-3" d="M258.18,556.83c0-4.06,2.73-6.39,5.84-6.39a5.11,5.11,0,0,1,3.56,1.42l-1.06,1.36a3.49,3.49,0,0,0-2.41-1.07c-2.2,0-3.81,1.89-3.81,4.68s1.52,4.64,3.76,4.64a4.38,4.38,0,0,0,2.85-1.21l.89,1.38a5.92,5.92,0,0,1-3.93,1.54C260.64,563.18,258.18,560.85,258.18,556.83Z"/><path class="cls-3" d="M270.93,556.83c0-4,2.66-6.39,5.46-6.39,3.1,0,4.85,2.22,4.85,5.7a6.34,6.34,0,0,1-.1,1.16H273c.14,2.58,1.72,4.25,4,4.25a5.36,5.36,0,0,0,3-1l.73,1.34a7.1,7.1,0,0,1-4,1.26C273.5,563.18,270.93,560.82,270.93,556.83Zm8.49-1c0-2.43-1.1-3.76-3-3.76-1.7,0-3.23,1.37-3.48,3.76Z"/><path class="cls-3" d="M286.1,550.74h1.7l.18,1.75H288a5.8,5.8,0,0,1,4.08-2c2.56,0,3.71,1.65,3.71,4.75v7.69h-2.06v-7.43c0-2.26-.68-3.23-2.29-3.23-1.24,0-2.1.63-3.32,1.87v8.79H286.1Z"/><path class="cls-3" d="M302,559.13v-6.72h-1.8v-1.56l1.9-.11.24-3.41h1.72v3.41h3.29v1.67h-3.29v6.75c0,1.49.48,2.35,1.88,2.35a3.88,3.88,0,0,0,1.38-.33l.4,1.55a7.1,7.1,0,0,1-2.26.45C302.89,563.18,302,561.55,302,559.13Z"/><path class="cls-3" d="M312,550.74h1.7l.17,2.21h.07a4.18,4.18,0,0,1,3.45-2.51,2.72,2.72,0,0,1,1.3.25l-.38,1.8a3.48,3.48,0,0,0-1.18-.2c-1,0-2.26.74-3.08,2.79v7.8h-2Z"/><path class="cls-3" d="M321.18,559.73c0-2.65,2.28-4,7.46-4.53,0-1.57-.53-3.07-2.51-3.07a6.64,6.64,0,0,0-3.62,1.3L321.7,552a8.94,8.94,0,0,1,4.77-1.58c3,0,4.22,2,4.22,5v7.45H329l-.17-1.45h-.07a6.42,6.42,0,0,1-4,1.75A3.3,3.3,0,0,1,321.18,559.73Zm7.46.19v-3.37c-4.07.49-5.45,1.48-5.45,3,0,1.38.94,1.94,2.13,1.94A5,5,0,0,0,328.64,559.92Z"/><path class="cls-3" d="M336.4,560.44V545.08h2.06v15.51c0,.63.27.88.57.88a1.76,1.76,0,0,0,.45-.05l.28,1.57a3.17,3.17,0,0,1-1.18.19C337,563.18,336.4,562.2,336.4,560.44Z"/><path class="cls-3" d="M344.28,546.91a1.42,1.42,0,0,1,2.84,0,1.42,1.42,0,0,1-2.84,0Zm.37,3.83h2.06v12.14h-2.06Z"/><path class="cls-3" d="M351.33,561.5l1-1.36a5.45,5.45,0,0,0,3.58,1.44c1.6,0,2.39-.85,2.39-1.88,0-1.25-1.44-1.81-2.78-2.31-1.7-.62-3.62-1.46-3.62-3.51s1.55-3.44,4.19-3.44a6.11,6.11,0,0,1,3.77,1.36l-1,1.32a4.56,4.56,0,0,0-2.77-1.08c-1.53,0-2.24.81-2.24,1.74,0,1.15,1.32,1.59,2.7,2.11,1.75.66,3.71,1.37,3.71,3.68,0,2-1.57,3.61-4.44,3.61A7.32,7.32,0,0,1,351.33,561.5Z"/><path class="cls-3" d="M364.12,556.83c0-4,2.67-6.39,5.47-6.39,3.09,0,4.84,2.22,4.84,5.7a6.43,6.43,0,0,1-.09,1.16h-8.18c.14,2.58,1.72,4.25,4,4.25a5.36,5.36,0,0,0,3-1l.73,1.34a7.1,7.1,0,0,1-4,1.26C366.7,563.18,364.12,560.82,364.12,556.83Zm8.5-1c0-2.43-1.1-3.76-3-3.76-1.71,0-3.23,1.37-3.48,3.76Zm-4.44-8.3,3.53-4.16,1.45,1.36-3.93,3.83Z"/><path class="cls-3" d="M385.31,556.83c0-4,2.49-6.39,5.26-6.39a5,5,0,0,1,3.4,1.4l-.08-2.08v-4.68h2.05v17.8h-1.7l-.17-1.43H394a5.34,5.34,0,0,1-3.69,1.73C387.28,563.18,385.31,560.88,385.31,556.83Zm8.58,3v-6.37a4.27,4.27,0,0,0-3-1.26c-1.94,0-3.48,1.87-3.48,4.64s1.2,4.65,3.33,4.65A4.22,4.22,0,0,0,393.89,559.8Z"/><path class="cls-3" d="M401,556.83c0-4,2.67-6.39,5.47-6.39,3.09,0,4.84,2.22,4.84,5.7a6.43,6.43,0,0,1-.09,1.16h-8.18c.14,2.58,1.72,4.25,4,4.25a5.36,5.36,0,0,0,3-1l.73,1.34a7.1,7.1,0,0,1-4,1.26C403.6,563.18,401,560.82,401,556.83Zm8.5-1c0-2.43-1.1-3.76-3-3.76-1.71,0-3.23,1.37-3.48,3.76Z"/><path class="cls-3" d="M421.73,561.5l1-1.36a5.49,5.49,0,0,0,3.59,1.44c1.59,0,2.39-.85,2.39-1.88,0-1.25-1.44-1.81-2.78-2.31-1.7-.62-3.63-1.46-3.63-3.51s1.56-3.44,4.2-3.44a6.11,6.11,0,0,1,3.77,1.36l-1,1.32a4.58,4.58,0,0,0-2.77-1.08c-1.53,0-2.24.81-2.24,1.74,0,1.15,1.32,1.59,2.7,2.11,1.75.66,3.7,1.37,3.7,3.68,0,2-1.56,3.61-4.43,3.61A7.32,7.32,0,0,1,421.73,561.5Z"/><path class="cls-3" d="M435.05,546.91a1.42,1.42,0,0,1,2.84,0,1.42,1.42,0,0,1-2.84,0Zm.38,3.83h2.05v12.14h-2.05Z"/><path class="cls-3" d="M443.81,559.13v-6.72H442v-1.56l1.9-.11.25-3.41h1.72v3.41h3.29v1.67h-3.29v6.75c0,1.49.48,2.35,1.88,2.35a3.93,3.93,0,0,0,1.38-.33l.4,1.55a7.15,7.15,0,0,1-2.26.45C444.69,563.18,443.81,561.55,443.81,559.13Z"/><path class="cls-3" d="M452.52,556.83c0-4,2.67-6.39,5.46-6.39,3.1,0,4.85,2.22,4.85,5.7a6.43,6.43,0,0,1-.09,1.16h-8.18c.14,2.58,1.72,4.25,4,4.25a5.36,5.36,0,0,0,3-1l.73,1.34a7.1,7.1,0,0,1-4,1.26C455.1,563.18,452.52,560.82,452.52,556.83Zm8.5-1c0-2.43-1.1-3.76-3-3.76-1.71,0-3.23,1.37-3.48,3.76Z"/><path class="cls-3" d="M466.35,561.5l1-1.36a5.47,5.47,0,0,0,3.58,1.44c1.6,0,2.39-.85,2.39-1.88,0-1.25-1.43-1.81-2.78-2.31-1.7-.62-3.62-1.46-3.62-3.51s1.56-3.44,4.19-3.44a6.14,6.14,0,0,1,3.78,1.36l-1,1.32a4.53,4.53,0,0,0-2.77-1.08c-1.53,0-2.23.81-2.23,1.74,0,1.15,1.32,1.59,2.69,2.11,1.76.66,3.71,1.37,3.71,3.68,0,2-1.57,3.61-4.43,3.61A7.33,7.33,0,0,1,466.35,561.5Z"/><path class="cls-3" d="M485.47,550.74h2.11l1.8,7c.26,1.16.49,2.25.72,3.39h.1c.26-1.14.53-2.25.83-3.39l1.87-7h2l1.89,7c.3,1.16.57,2.25.85,3.39h.1c.26-1.14.49-2.23.75-3.39l1.77-7h2L499,562.88h-2.5l-1.76-6.52c-.29-1.15-.52-2.27-.82-3.5h-.1c-.26,1.23-.5,2.38-.83,3.53l-1.7,6.49h-2.41Z"/><path class="cls-3" d="M505.75,556.83c0-4,2.66-6.39,5.46-6.39,3.1,0,4.85,2.22,4.85,5.7a6.34,6.34,0,0,1-.1,1.16h-8.18c.15,2.58,1.72,4.25,4,4.25a5.35,5.35,0,0,0,3-1l.74,1.34a7.14,7.14,0,0,1-4,1.26C508.33,563.18,505.75,560.82,505.75,556.83Zm8.49-1c0-2.43-1.09-3.76-3-3.76-1.71,0-3.24,1.37-3.49,3.76Z"/><path class="cls-3" d="M522.83,561.63h-.07l-.19,1.25h-1.65v-17.8H523V550l-.07,2.18a6.14,6.14,0,0,1,3.82-1.69c3.14,0,4.82,2.43,4.82,6.18,0,4.15-2.48,6.56-5.26,6.56A5.41,5.41,0,0,1,522.83,561.63Zm6.6-5c0-2.68-.92-4.47-3.2-4.47a4.93,4.93,0,0,0-3.25,1.65v6.37a4.67,4.67,0,0,0,3,1.27C528,561.46,529.43,559.64,529.43,556.64Z"/><path class="cls-3" d="M130.11,585.63c0-4,2.49-6.39,5.26-6.39a5,5,0,0,1,3.41,1.4l-.09-2.08v-4.68h2.06v17.8h-1.7l-.18-1.43h-.07a5.32,5.32,0,0,1-3.68,1.73C132.08,592,130.11,589.67,130.11,585.63Zm8.58,3v-6.37a4.26,4.26,0,0,0-3-1.27c-1.95,0-3.49,1.88-3.49,4.65s1.2,4.64,3.33,4.64A4.19,4.19,0,0,0,138.69,588.6Z"/><path class="cls-3" d="M145.83,585.63c0-4,2.66-6.39,5.46-6.39,3.1,0,4.85,2.22,4.85,5.7a6.34,6.34,0,0,1-.1,1.16h-8.18c.15,2.58,1.72,4.25,4,4.25a5.35,5.35,0,0,0,3-1l.74,1.34a7.14,7.14,0,0,1-4,1.26C148.41,592,145.83,589.62,145.83,585.63Zm8.49-1c0-2.43-1.09-3.76-3-3.76-1.71,0-3.24,1.37-3.49,3.76Z"/><path class="cls-3" d="M159.66,590.3l1-1.36a5.49,5.49,0,0,0,3.59,1.44c1.59,0,2.39-.85,2.39-1.88,0-1.25-1.44-1.81-2.78-2.31-1.71-.62-3.63-1.46-3.63-3.51s1.56-3.44,4.19-3.44a6.12,6.12,0,0,1,3.78,1.36l-1,1.32a4.58,4.58,0,0,0-2.77-1.08c-1.53,0-2.24.81-2.24,1.74,0,1.15,1.32,1.59,2.7,2.11,1.75.66,3.7,1.37,3.7,3.68,0,2-1.56,3.61-4.43,3.61A7.3,7.3,0,0,1,159.66,590.3Z"/><path class="cls-3" d="M179.33,585.63c0-4.06,2.73-6.39,5.84-6.39a5.11,5.11,0,0,1,3.56,1.42L187.67,582a3.49,3.49,0,0,0-2.41-1.07c-2.2,0-3.81,1.89-3.81,4.68s1.52,4.64,3.76,4.64a4.38,4.38,0,0,0,2.85-1.21l.89,1.38A5.92,5.92,0,0,1,185,592C181.79,592,179.33,589.65,179.33,585.63Z"/><path class="cls-3" d="M192.08,585.63c0-4.06,2.65-6.39,5.63-6.39s5.63,2.33,5.63,6.39-2.66,6.35-5.63,6.35S192.08,589.65,192.08,585.63Zm9.13,0c0-2.79-1.41-4.68-3.5-4.68s-3.51,1.89-3.51,4.68,1.42,4.64,3.51,4.64S201.21,588.41,201.21,585.63Z"/><path class="cls-3" d="M208.4,579.54h1.7l.18,1.76h.06a5.42,5.42,0,0,1,3.78-2.06,3.2,3.2,0,0,1,3.36,2.31c1.26-1.37,2.53-2.31,4-2.31,2.49,0,3.69,1.65,3.69,4.75v7.69h-2.05v-7.43c0-2.26-.72-3.23-2.26-3.23-1,0-1.93.62-3.05,1.87v8.79h-2v-7.43c0-2.26-.72-3.23-2.27-3.23-.91,0-1.92.62-3,1.87v8.79H208.4Z"/><path class="cls-3" d="M231,579.54h1.7l.18,1.76h.06a5.42,5.42,0,0,1,3.79-2.06,3.2,3.2,0,0,1,3.35,2.31c1.26-1.37,2.53-2.31,4-2.31,2.49,0,3.69,1.65,3.69,4.75v7.69h-2.05v-7.43c0-2.26-.72-3.23-2.26-3.23-.95,0-1.93.62-3.05,1.87v8.79h-2v-7.43c0-2.26-.72-3.23-2.27-3.23-.91,0-1.92.62-3,1.87v8.79H231Z"/><path class="cls-3" d="M253.44,587.23v-7.69h2.06V587c0,2.26.68,3.23,2.29,3.23,1.24,0,2.1-.62,3.25-2.05v-8.61h2.06v12.14h-1.7l-.17-1.9h-.07a5.15,5.15,0,0,1-4,2.2C254.59,592,253.44,590.33,253.44,587.23Z"/><path class="cls-3" d="M269.08,579.54h1.7l.17,1.75H271a5.8,5.8,0,0,1,4.07-2c2.56,0,3.71,1.65,3.71,4.75v7.69h-2.05v-7.43c0-2.26-.69-3.23-2.29-3.23-1.25,0-2.11.63-3.33,1.87v8.79h-2.05Z"/><path class="cls-3" d="M283.88,588.53c0-2.65,2.28-4,7.46-4.53,0-1.57-.53-3.07-2.51-3.07a6.64,6.64,0,0,0-3.62,1.3l-.81-1.41a8.94,8.94,0,0,1,4.77-1.58c3,0,4.22,2,4.22,5v7.45H291.7l-.18-1.45h-.07a6.39,6.39,0,0,1-4,1.75A3.3,3.3,0,0,1,283.88,588.53Zm7.46.19v-3.37c-4.07.49-5.45,1.48-5.45,3,0,1.38.94,1.94,2.13,1.94A5,5,0,0,0,291.34,588.72Z"/><path class="cls-3" d="M298.94,587.23v-7.69H301V587c0,2.26.68,3.23,2.29,3.23,1.24,0,2.1-.62,3.25-2.05v-8.61h2.06v12.14h-1.7l-.17-1.9h-.07a5.15,5.15,0,0,1-4,2.2C300.09,592,298.94,590.33,298.94,587.23Z"/><path class="cls-3" d="M314.94,587.93v-6.72h-1.81v-1.56l1.9-.11.25-3.41H317v3.41h3.3v1.67H317V588c0,1.49.48,2.35,1.88,2.35a4,4,0,0,0,1.39-.33l.39,1.55a7,7,0,0,1-2.25.45C315.81,592,314.94,590.35,314.94,587.93Z"/><path class="cls-3" d="M323.65,585.63c0-4,2.67-6.39,5.46-6.39,3.1,0,4.85,2.22,4.85,5.7a6.34,6.34,0,0,1-.1,1.16h-8.18c.15,2.58,1.72,4.25,4,4.25a5.32,5.32,0,0,0,3-1l.74,1.34a7.13,7.13,0,0,1-4,1.26C326.23,592,323.65,589.62,323.65,585.63Zm8.49-1c0-2.43-1.09-3.76-3-3.76-1.71,0-3.24,1.37-3.49,3.76Zm-4.44-8.3,3.54-4.16,1.45,1.36-3.93,3.83Z"/><path class="cls-3" d="M337.48,590.3l1-1.36a5.45,5.45,0,0,0,3.58,1.44c1.6,0,2.39-.85,2.39-1.88,0-1.25-1.43-1.81-2.78-2.31-1.7-.62-3.62-1.46-3.62-3.51s1.55-3.44,4.19-3.44A6.16,6.16,0,0,1,346,580.6l-1,1.32a4.53,4.53,0,0,0-2.77-1.08c-1.53,0-2.24.81-2.24,1.74,0,1.15,1.33,1.59,2.7,2.11,1.75.66,3.71,1.37,3.71,3.68,0,2-1.57,3.61-4.44,3.61A7.32,7.32,0,0,1,337.48,590.3Z"/><path class="cls-3" d="M357.89,587.23v-7.69H360V587c0,2.26.68,3.23,2.29,3.23,1.24,0,2.1-.62,3.25-2.05v-8.61h2.06v12.14h-1.7l-.18-1.9h-.06a5.15,5.15,0,0,1-4,2.2C359,592,357.89,590.33,357.89,587.23Z"/><path class="cls-3" d="M373.53,579.54h1.7l.17,2.21h.07a4.18,4.18,0,0,1,3.45-2.51,2.72,2.72,0,0,1,1.3.25l-.39,1.8a3.38,3.38,0,0,0-1.17-.2c-1,0-2.26.74-3.08,2.79v7.8h-2.05Z"/><path class="cls-3" d="M386,590.43h-.07l-.19,1.25h-1.64v-17.8h2.05v4.87l-.07,2.18a6.17,6.17,0,0,1,3.82-1.69c3.14,0,4.83,2.43,4.83,6.18,0,4.15-2.49,6.56-5.26,6.56A5.44,5.44,0,0,1,386,590.43Zm6.6-5c0-2.68-.91-4.48-3.2-4.48a5,5,0,0,0-3.25,1.66V589a4.65,4.65,0,0,0,3,1.26C391.1,590.25,392.58,588.44,392.58,585.44Z"/><path class="cls-3" d="M398.67,588.53c0-2.65,2.29-4,7.47-4.53,0-1.57-.53-3.07-2.51-3.07a6.7,6.7,0,0,0-3.63,1.3l-.8-1.41a8.94,8.94,0,0,1,4.77-1.58c3,0,4.22,2,4.22,5v7.45h-1.7l-.17-1.45h-.07a6.42,6.42,0,0,1-4,1.75A3.3,3.3,0,0,1,398.67,588.53Zm7.47.19v-3.37c-4.08.49-5.45,1.48-5.45,3,0,1.38.93,1.94,2.13,1.94A5,5,0,0,0,406.14,588.72Z"/><path class="cls-3" d="M413.53,575.71a1.42,1.42,0,0,1,2.84,0,1.42,1.42,0,0,1-2.84,0Zm.37,3.83H416v12.14H413.9Z"/><path class="cls-3" d="M421.93,579.54h1.69l.18,1.75h.07a5.76,5.76,0,0,1,4.07-2c2.56,0,3.71,1.65,3.71,4.75v7.69h-2v-7.43c0-2.26-.69-3.23-2.3-3.23-1.24,0-2.1.63-3.32,1.87v8.79h-2.05Z"/><path class="cls-3" d="M436.57,585.63c0-4,2.67-6.39,5.47-6.39,3.09,0,4.84,2.22,4.84,5.7a6.43,6.43,0,0,1-.09,1.16h-8.18c.14,2.58,1.72,4.25,4,4.25a5.36,5.36,0,0,0,3-1l.73,1.34a7.1,7.1,0,0,1-4,1.26C439.15,592,436.57,589.62,436.57,585.63Zm8.5-1c0-2.43-1.1-3.76-3-3.76-1.71,0-3.23,1.37-3.48,3.76Z"/><path class="cls-3" d="M450.4,590.3l1-1.36a5.47,5.47,0,0,0,3.59,1.44c1.59,0,2.38-.85,2.38-1.88,0-1.25-1.43-1.81-2.78-2.31-1.7-.62-3.62-1.46-3.62-3.51s1.56-3.44,4.19-3.44A6.14,6.14,0,0,1,459,580.6l-1,1.32a4.58,4.58,0,0,0-2.77-1.08c-1.54,0-2.24.81-2.24,1.74,0,1.15,1.32,1.59,2.7,2.11,1.75.66,3.7,1.37,3.7,3.68,0,2-1.57,3.61-4.43,3.61A7.35,7.35,0,0,1,450.4,590.3Z"/><path class="cls-3" d="M478.69,592.49l.08-2.2a5.41,5.41,0,0,1-3.66,1.69c-3,0-5-2.31-5-6.35s2.49-6.39,5.26-6.39a4.94,4.94,0,0,1,3.47,1.45h.07l.19-1.15h1.64v17.27h-2.05Zm0-3.89v-6.37a4.28,4.28,0,0,0-3-1.27c-1.94,0-3.49,1.88-3.49,4.65s1.21,4.64,3.34,4.64A4.2,4.2,0,0,0,478.69,588.6Z"/><path class="cls-3" d="M486.56,587.23v-7.69h2.06V587c0,2.26.68,3.23,2.29,3.23,1.24,0,2.1-.62,3.25-2.05v-8.61h2.06v12.14h-1.7l-.17-1.9h-.07a5.15,5.15,0,0,1-4,2.2C487.71,592,486.56,590.33,486.56,587.23Z"/><path class="cls-3" d="M501.82,575.71a1.42,1.42,0,1,1,1.42,1.33A1.35,1.35,0,0,1,501.82,575.71Zm.38,3.83h2.06v12.14H502.2Z"/><path class="cls-3" d="M517.1,579.54h1.7l.17,1.4H519a6.36,6.36,0,0,1,3.87-1.7c3.14,0,4.82,2.43,4.82,6.19,0,4.14-2.48,6.55-5.26,6.55a5.55,5.55,0,0,1-3.37-1.4l.06,2.12v4.11H517.1Zm8.51,5.9c0-2.68-.92-4.48-3.21-4.48a5,5,0,0,0-3.24,1.66V589a4.69,4.69,0,0,0,3,1.26C524.12,590.25,525.61,588.44,525.61,585.44Z"/><path class="cls-3" d="M532,585.63c0-4,2.66-6.39,5.46-6.39,3.1,0,4.85,2.22,4.85,5.7a6.34,6.34,0,0,1-.1,1.16H534c.15,2.58,1.72,4.25,4,4.25a5.35,5.35,0,0,0,3-1l.74,1.34a7.14,7.14,0,0,1-4,1.26C534.53,592,532,589.62,532,585.63Zm8.49-1c0-2.43-1.09-3.76-3-3.76-1.71,0-3.24,1.37-3.49,3.76Z"/><path class="cls-3" d="M547.12,579.54h1.7l.18,2.21h.07a4.17,4.17,0,0,1,3.45-2.51,2.72,2.72,0,0,1,1.3.25l-.39,1.8a3.44,3.44,0,0,0-1.18-.2c-1,0-2.25.74-3.07,2.79v7.8h-2.06Z"/><path class="cls-3" d="M557.67,579.54h1.7l.18,1.76h.06a5.42,5.42,0,0,1,3.78-2.06,3.2,3.2,0,0,1,3.36,2.31c1.26-1.37,2.53-2.31,4-2.31,2.49,0,3.69,1.65,3.69,4.75v7.69H572.4v-7.43c0-2.26-.72-3.23-2.26-3.23-.95,0-1.93.62-3,1.87v8.79H565v-7.43c0-2.26-.72-3.23-2.27-3.23-.91,0-1.92.62-3,1.87v8.79h-2.06Z"/><path class="cls-3" d="M579.37,585.63c0-4,2.67-6.39,5.46-6.39,3.1,0,4.85,2.22,4.85,5.7a6.43,6.43,0,0,1-.09,1.16H581.4c.15,2.58,1.72,4.25,4,4.25a5.32,5.32,0,0,0,3-1l.74,1.34a7.13,7.13,0,0,1-4,1.26C582,592,579.37,589.62,579.37,585.63Zm8.5-1c0-2.43-1.1-3.76-3-3.76-1.71,0-3.23,1.37-3.48,3.76Z"/><path class="cls-3" d="M594.66,587.93v-6.72h-1.81v-1.56l1.9-.11.25-3.41h1.71v3.41H600v1.67h-3.3V588c0,1.49.48,2.35,1.88,2.35A3.93,3.93,0,0,0,600,590l.4,1.55a7.15,7.15,0,0,1-2.26.45C595.54,592,594.66,590.35,594.66,587.93Z"/><path class="cls-3" d="M604.48,587.93v-6.72h-1.8v-1.56l1.9-.11.24-3.41h1.72v3.41h3.29v1.67h-3.29V588c0,1.49.48,2.35,1.88,2.35a3.88,3.88,0,0,0,1.38-.33l.4,1.55A7.09,7.09,0,0,1,608,592C605.36,592,604.48,590.35,604.48,587.93Z"/><path class="cls-3" d="M613.2,585.63c0-4,2.66-6.39,5.46-6.39,3.1,0,4.85,2.22,4.85,5.7a6.34,6.34,0,0,1-.1,1.16h-8.18c.15,2.58,1.72,4.25,4,4.25a5.35,5.35,0,0,0,3-1l.74,1.34a7.14,7.14,0,0,1-4,1.26C615.78,592,613.2,589.62,613.2,585.63Zm8.49-1c0-2.43-1.09-3.76-3-3.76-1.71,0-3.24,1.37-3.49,3.76Z"/><path class="cls-3" d="M628.37,579.54h1.7l.18,1.75h.06a5.8,5.8,0,0,1,4.08-2c2.56,0,3.71,1.65,3.71,4.75v7.69H636v-7.43c0-2.26-.68-3.23-2.29-3.23-1.24,0-2.1.63-3.32,1.87v8.79h-2.06Z"/><path class="cls-3" d="M644.28,587.93v-6.72h-1.8v-1.56l1.9-.11.24-3.41h1.72v3.41h3.29v1.67h-3.29V588c0,1.49.48,2.35,1.88,2.35a3.88,3.88,0,0,0,1.38-.33l.4,1.55a7.09,7.09,0,0,1-2.25.45C645.16,592,644.28,590.35,644.28,587.93Z"/><path class="cls-3" d="M131,618V602.68H133v15.51c0,.63.27.88.57.88a1.76,1.76,0,0,0,.45-.05l.28,1.57a3.23,3.23,0,0,1-1.19.19C131.61,620.78,131,619.8,131,618Z"/><path class="cls-3" d="M139.24,605.54l-.05-2.31h2.18l-.06,2.31-.4,4.16h-1.26Z"/><path class="cls-3" d="M147,604.51a1.42,1.42,0,0,1,2.84,0,1.42,1.42,0,0,1-2.84,0Zm.38,3.82h2.06v12.15h-2.06Z"/><path class="cls-3" d="M155.35,608.33h1.7l.18,1.76h.06a5.8,5.8,0,0,1,4.08-2.05c2.56,0,3.71,1.65,3.71,4.75v7.69H163v-7.43c0-2.26-.68-3.23-2.29-3.23-1.24,0-2.1.63-3.32,1.87v8.79h-2.06Z"/><path class="cls-3" d="M169.56,619.1l1-1.36a5.49,5.49,0,0,0,3.59,1.44c1.59,0,2.39-.85,2.39-1.88,0-1.25-1.44-1.81-2.78-2.31-1.71-.62-3.63-1.46-3.63-3.51s1.56-3.44,4.19-3.44a6.12,6.12,0,0,1,3.78,1.36l-1,1.32a4.58,4.58,0,0,0-2.77-1.08c-1.53,0-2.24.81-2.24,1.74,0,1.15,1.32,1.59,2.7,2.11,1.75.66,3.7,1.37,3.7,3.68,0,2-1.56,3.61-4.43,3.61A7.3,7.3,0,0,1,169.56,619.1Z"/><path class="cls-3" d="M182.35,614.43c0-4,2.67-6.39,5.46-6.39,3.1,0,4.85,2.22,4.85,5.7a7.49,7.49,0,0,1-.09,1.16h-8.19c.15,2.58,1.72,4.25,4,4.25a5.32,5.32,0,0,0,3-1l.74,1.34a7.13,7.13,0,0,1-4,1.26C184.93,620.78,182.35,618.42,182.35,614.43Zm8.49-1c0-2.43-1.09-3.76-3-3.76-1.71,0-3.23,1.37-3.48,3.76Z"/><path class="cls-3" d="M197.53,608.33h1.7l.17,2.22h.07a4.18,4.18,0,0,1,3.45-2.51,2.72,2.72,0,0,1,1.3.25l-.38,1.8a3.48,3.48,0,0,0-1.18-.2c-1,0-2.25.74-3.08,2.79v7.8h-2.05Z"/><path class="cls-3" d="M208.44,616.73V610h-1.81v-1.56l1.9-.12.25-3.4h1.71v3.4h3.3V610h-3.3v6.75c0,1.49.48,2.35,1.88,2.35a4,4,0,0,0,1.39-.33l.39,1.55a7,7,0,0,1-2.25.45C209.31,620.78,208.44,619.15,208.44,616.73Z"/><path class="cls-3" d="M218,604.51a1.42,1.42,0,0,1,2.84,0,1.42,1.42,0,0,1-2.84,0Zm.37,3.82h2.06v12.15H218.4Z"/><path class="cls-3" d="M225.53,614.43c0-4.06,2.65-6.39,5.63-6.39s5.62,2.33,5.62,6.39-2.65,6.35-5.62,6.35S225.53,618.45,225.53,614.43Zm9.13,0c0-2.79-1.42-4.68-3.5-4.68s-3.51,1.89-3.51,4.68,1.42,4.64,3.51,4.64S234.66,617.21,234.66,614.43Z"/><path class="cls-3" d="M241.85,608.33h1.7l.17,1.76h.07a5.8,5.8,0,0,1,4.08-2.05c2.56,0,3.71,1.65,3.71,4.75v7.69h-2.06v-7.43c0-2.26-.68-3.23-2.29-3.23-1.24,0-2.1.63-3.32,1.87v8.79h-2.06Z"/><path class="cls-3" d="M263.41,614.43c0-3.95,2.49-6.39,5.26-6.39a5,5,0,0,1,3.4,1.4l-.08-2.08v-4.68H274v17.8h-1.7l-.17-1.43h-.07a5.34,5.34,0,0,1-3.68,1.73C265.38,620.78,263.41,618.47,263.41,614.43Zm8.58,3V611a4.27,4.27,0,0,0-3-1.27c-1.94,0-3.48,1.88-3.48,4.65s1.2,4.64,3.33,4.64A4.2,4.2,0,0,0,272,617.4Z"/><path class="cls-3" d="M279.12,614.43c0-4,2.67-6.39,5.47-6.39,3.1,0,4.84,2.22,4.84,5.7a6.43,6.43,0,0,1-.09,1.16h-8.18c.14,2.58,1.72,4.25,4,4.25a5.36,5.36,0,0,0,3-1l.73,1.34a7.1,7.1,0,0,1-4,1.26C281.7,620.78,279.12,618.42,279.12,614.43Zm8.5-1c0-2.43-1.1-3.76-3-3.76-1.7,0-3.23,1.37-3.48,3.76Z"/><path class="cls-3" d="M301.18,608.33h1.7l.17,1.41h.07A6.34,6.34,0,0,1,307,608c3.14,0,4.82,2.43,4.82,6.19,0,4.14-2.49,6.55-5.26,6.55a5.51,5.51,0,0,1-3.37-1.4l.05,2.12v4.11h-2.05Zm8.5,5.91c0-2.68-.91-4.48-3.2-4.48a5,5,0,0,0-3.25,1.66v6.37a4.77,4.77,0,0,0,3,1.26C308.2,619.05,309.68,617.24,309.68,614.24Z"/><path class="cls-3" d="M316,614.43c0-4,2.67-6.39,5.47-6.39,3.09,0,4.84,2.22,4.84,5.7a6.43,6.43,0,0,1-.09,1.16h-8.18c.14,2.58,1.72,4.25,4,4.25a5.36,5.36,0,0,0,3-1l.73,1.34a7.1,7.1,0,0,1-4,1.26C318.6,620.78,316,618.42,316,614.43Zm8.5-1c0-2.43-1.1-3.76-3-3.76-1.71,0-3.23,1.37-3.48,3.76Z"/><path class="cls-3" d="M331.31,616.73V610H329.5v-1.56l1.9-.12.25-3.4h1.72v3.4h3.29V610h-3.29v6.75c0,1.49.48,2.35,1.88,2.35a3.88,3.88,0,0,0,1.38-.33l.4,1.55a7.1,7.1,0,0,1-2.26.45C332.19,620.78,331.31,619.15,331.31,616.73Z"/><path class="cls-3" d="M340.9,604.51a1.42,1.42,0,0,1,2.84,0,1.42,1.42,0,0,1-2.84,0Zm.38,3.82h2.05v12.15h-2.05Z"/><path class="cls-3" d="M349.66,616.73V610h-1.81v-1.56l1.9-.12.25-3.4h1.72v3.4H355V610h-3.29v6.75c0,1.49.48,2.35,1.88,2.35a3.88,3.88,0,0,0,1.38-.33l.4,1.55a7.1,7.1,0,0,1-2.26.45C350.54,620.78,349.66,619.15,349.66,616.73Z"/><path class="cls-3" d="M358.37,614.43c0-4,2.67-6.39,5.47-6.39,3.09,0,4.84,2.22,4.84,5.7a6.43,6.43,0,0,1-.09,1.16h-8.18c.14,2.58,1.72,4.25,4,4.25a5.36,5.36,0,0,0,3-1l.73,1.34a7.1,7.1,0,0,1-4,1.26C361,620.78,358.37,618.42,358.37,614.43Zm8.5-1c0-2.43-1.1-3.76-3-3.76-1.71,0-3.23,1.37-3.48,3.76Z"/><path class="cls-3" d="M372.2,619.1l1-1.36a5.47,5.47,0,0,0,3.58,1.44c1.6,0,2.39-.85,2.39-1.88,0-1.25-1.43-1.81-2.78-2.31-1.7-.62-3.62-1.46-3.62-3.51S374.35,608,377,608a6.14,6.14,0,0,1,3.78,1.36l-1,1.32a4.53,4.53,0,0,0-2.77-1.08c-1.53,0-2.23.81-2.23,1.74,0,1.15,1.32,1.59,2.69,2.11,1.76.66,3.71,1.37,3.71,3.68,0,2-1.57,3.61-4.43,3.61A7.35,7.35,0,0,1,372.2,619.1Z"/><path class="cls-3" d="M392,617.33c0-2.65,2.29-4,7.46-4.53,0-1.57-.52-3.07-2.5-3.07a6.7,6.7,0,0,0-3.63,1.3l-.8-1.41a8.94,8.94,0,0,1,4.77-1.58c3,0,4.22,2,4.22,5v7.45h-1.7l-.17-1.45h-.07a6.42,6.42,0,0,1-4,1.75A3.3,3.3,0,0,1,392,617.33Zm7.46.19v-3.37c-4.07.49-5.44,1.48-5.44,3,0,1.38.93,1.94,2.13,1.94A5,5,0,0,0,399.48,617.52Z"/><path class="cls-3" d="M407.25,608.33H409l.17,1.76h.07a5.8,5.8,0,0,1,4.08-2.05c2.56,0,3.71,1.65,3.71,4.75v7.69h-2.06v-7.43c0-2.26-.68-3.23-2.29-3.23-1.24,0-2.11.63-3.32,1.87v8.79h-2.06Z"/><path class="cls-3" d="M422.8,608.33h1.7l.17,1.76h.07a5.8,5.8,0,0,1,4.08-2.05c2.56,0,3.71,1.65,3.71,4.75v7.69h-2.06v-7.43c0-2.26-.68-3.23-2.29-3.23-1.24,0-2.11.63-3.32,1.87v8.79H422.8Z"/><path class="cls-3" d="M437.45,614.43c0-4.06,2.65-6.39,5.63-6.39s5.63,2.33,5.63,6.39-2.65,6.35-5.63,6.35S437.45,618.45,437.45,614.43Zm9.13,0c0-2.79-1.41-4.68-3.5-4.68s-3.51,1.89-3.51,4.68,1.42,4.64,3.51,4.64S446.58,617.21,446.58,614.43Z"/><path class="cls-3" d="M453.78,608.33h1.69l.18,1.76h.07a5.76,5.76,0,0,1,4.07-2.05c2.56,0,3.71,1.65,3.71,4.75v7.69h-2.06v-7.43c0-2.26-.68-3.23-2.29-3.23-1.24,0-2.1.63-3.32,1.87v8.79h-2.05Z"/><path class="cls-3" d="M468.42,614.43c0-4.06,2.74-6.39,5.85-6.39a5.08,5.08,0,0,1,3.55,1.42l-1.05,1.36a3.51,3.51,0,0,0-2.41-1.07c-2.2,0-3.81,1.89-3.81,4.68s1.52,4.64,3.75,4.64a4.39,4.39,0,0,0,2.86-1.21l.89,1.38a5.92,5.92,0,0,1-3.93,1.54C470.89,620.78,468.42,618.45,468.42,614.43Z"/><path class="cls-3" d="M481.17,614.43c0-4,2.67-6.39,5.46-6.39,3.1,0,4.85,2.22,4.85,5.7a6.43,6.43,0,0,1-.09,1.16h-8.18c.14,2.58,1.72,4.25,4,4.25a5.3,5.3,0,0,0,3-1l.74,1.34a7.1,7.1,0,0,1-4,1.26C483.75,620.78,481.17,618.42,481.17,614.43Zm8.5-1c0-2.43-1.1-3.76-3-3.76-1.71,0-3.23,1.37-3.48,3.76Z"/><path class="cls-3" d="M495,619.1l1-1.36a5.45,5.45,0,0,0,3.58,1.44c1.6,0,2.39-.85,2.39-1.88,0-1.25-1.43-1.81-2.78-2.31-1.7-.62-3.62-1.46-3.62-3.51s1.56-3.44,4.19-3.44a6.14,6.14,0,0,1,3.78,1.36l-1,1.32a4.53,4.53,0,0,0-2.77-1.08c-1.53,0-2.23.81-2.23,1.74,0,1.15,1.32,1.59,2.69,2.11,1.76.66,3.71,1.37,3.71,3.68,0,2-1.57,3.61-4.43,3.61A7.33,7.33,0,0,1,495,619.1Z"/><path class="cls-3" d="M514.67,614.43c0-4,2.67-6.39,5.46-6.39,3.1,0,4.85,2.22,4.85,5.7a7.49,7.49,0,0,1-.09,1.16H516.7c.15,2.58,1.72,4.25,4,4.25a5.32,5.32,0,0,0,3-1l.74,1.34a7.13,7.13,0,0,1-4,1.26C517.25,620.78,514.67,618.42,514.67,614.43Zm8.5-1c0-2.43-1.1-3.76-3-3.76-1.71,0-3.23,1.37-3.48,3.76Z"/><path class="cls-3" d="M529.85,608.33h1.7l.17,1.76h.07a5.8,5.8,0,0,1,4.08-2.05c2.55,0,3.71,1.65,3.71,4.75v7.69h-2.06v-7.43c0-2.26-.69-3.23-2.29-3.23-1.25,0-2.11.63-3.32,1.87v8.79h-2.06Z"/><path class="cls-3" d="M552.27,618V602.68h2.06v15.51c0,.63.27.88.57.88a1.76,1.76,0,0,0,.45-.05l.28,1.57a3.17,3.17,0,0,1-1.18.19C552.91,620.78,552.27,619.8,552.27,618Z"/><path class="cls-3" d="M560.15,604.51a1.42,1.42,0,0,1,2.84,0,1.42,1.42,0,0,1-2.84,0Zm.37,3.82h2.06v12.15h-2.06Z"/><path class="cls-3" d="M567.63,622.82a3.42,3.42,0,0,1,1.78-2.75V620a2.26,2.26,0,0,1-1.09-2,2.9,2.9,0,0,1,1.34-2.25v-.11a4.2,4.2,0,0,1-1.57-3.26,4.31,4.31,0,0,1,4.55-4.32,5.17,5.17,0,0,1,1.72.29h4.24v1.59h-2.5a3.47,3.47,0,0,1,1,2.5,4.15,4.15,0,0,1-4.45,4.21,4.3,4.3,0,0,1-1.81-.41,1.76,1.76,0,0,0-.77,1.43c0,.77.5,1.32,2.13,1.32h2.36c2.83,0,4.25.89,4.25,2.9,0,2.26-2.39,4.21-6.14,4.21C569.68,626.08,567.63,624.91,567.63,622.82Zm9.15-.64c0-1.12-.85-1.51-2.44-1.51h-2.1a7,7,0,0,1-1.58-.18,2.54,2.54,0,0,0-1.24,2c0,1.3,1.32,2.13,3.52,2.13S576.78,623.45,576.78,622.18Zm-1.55-9.82a2.6,2.6,0,1,0-5.17,0,2.6,2.6,0,1,0,5.17,0Z"/><path class="cls-3" d="M583,608.33h1.7l.18,1.76H585A5.8,5.8,0,0,1,589,608c2.56,0,3.71,1.65,3.71,4.75v7.69h-2.06v-7.43c0-2.26-.68-3.23-2.29-3.23-1.24,0-2.1.63-3.32,1.87v8.79H583Z"/><path class="cls-3" d="M597.67,614.43c0-4,2.67-6.39,5.46-6.39,3.1,0,4.85,2.22,4.85,5.7a6.34,6.34,0,0,1-.1,1.16H599.7c.15,2.58,1.72,4.25,4,4.25a5.32,5.32,0,0,0,3-1l.74,1.34a7.13,7.13,0,0,1-4,1.26C600.25,620.78,597.67,618.42,597.67,614.43Zm8.49-1c0-2.43-1.09-3.76-3-3.76-1.71,0-3.24,1.37-3.49,3.76Z"/><path class="cls-3" d="M612,623.52a3.35,3.35,0,0,0,2.25-3.1l-.22-1.84,1,1.5a1.25,1.25,0,0,1-1,.43,1.4,1.4,0,0,1-1.49-1.44,1.43,1.43,0,0,1,1.52-1.43c1.09,0,1.75.91,1.75,2.41a5,5,0,0,1-3.28,4.68Z"/><path class="cls-3" d="M131,637.13h1.7l.17,1.77h.07a5.39,5.39,0,0,1,3.78-2.07,3.22,3.22,0,0,1,3.36,2.32c1.26-1.37,2.52-2.32,4-2.32,2.5,0,3.7,1.66,3.7,4.76v7.69H145.7v-7.43c0-2.26-.71-3.23-2.26-3.23-.94,0-1.92.62-3,1.87v8.79h-2.06v-7.43c0-2.26-.71-3.23-2.26-3.23-.91,0-1.92.62-3,1.87v8.79H131Z"/><path class="cls-3" d="M152.68,643.23c0-4.06,2.65-6.4,5.63-6.4s5.63,2.34,5.63,6.4-2.65,6.35-5.63,6.35S152.68,647.25,152.68,643.23Zm9.13,0c0-2.79-1.41-4.68-3.5-4.68s-3.51,1.89-3.51,4.68,1.42,4.64,3.51,4.64S161.81,646,161.81,643.23Z"/><path class="cls-3" d="M167.69,654.27l.4-1.64a3.2,3.2,0,0,0,.92.18c1.38,0,2.24-1.1,2.74-2.6l.28-.9-4.88-12.18h2.12l2.48,6.73c.38,1.06.79,2.3,1.19,3.42h.1c.34-1.1.69-2.35,1-3.42l2.16-6.73h2l-4.58,13.16c-.86,2.41-2.11,4.23-4.55,4.23A3.92,3.92,0,0,1,167.69,654.27Z"/><path class="cls-3" d="M181.45,643.23c0-4,2.67-6.4,5.46-6.4,3.1,0,4.85,2.23,4.85,5.71a6.43,6.43,0,0,1-.09,1.16h-8.19c.15,2.58,1.73,4.25,4,4.25a5.32,5.32,0,0,0,3-1l.74,1.34a7.13,7.13,0,0,1-4,1.26C184,649.58,181.45,647.22,181.45,643.23Zm8.5-1c0-2.43-1.1-3.76-3-3.76-1.71,0-3.23,1.37-3.48,3.76Z"/><path class="cls-3" d="M196.63,637.13h1.7l.17,1.76h.07a5.82,5.82,0,0,1,4.08-2.06c2.56,0,3.7,1.66,3.7,4.76v7.69h-2v-7.43c0-2.26-.69-3.23-2.29-3.23-1.25,0-2.11.63-3.32,1.87v8.79h-2.06Z"/><path class="cls-3" d="M212.18,637.13h1.7l.17,1.76h.07a5.81,5.81,0,0,1,4.07-2.06c2.56,0,3.71,1.66,3.71,4.76v7.69h-2.05v-7.43c0-2.26-.69-3.23-2.29-3.23-1.25,0-2.11.63-3.32,1.87v8.79h-2.06Z"/><path class="cls-3" d="M227,646.13c0-2.65,2.28-4,7.46-4.53,0-1.57-.52-3.07-2.51-3.07a6.67,6.67,0,0,0-3.62,1.3l-.81-1.41a9,9,0,0,1,4.77-1.59c3,0,4.22,2,4.22,5v7.45H234.8l-.18-1.45h-.07a6.45,6.45,0,0,1-4,1.75A3.3,3.3,0,0,1,227,646.13Zm7.46.19V643c-4.07.49-5.45,1.48-5.45,3,0,1.38.94,1.94,2.13,1.94A5,5,0,0,0,234.44,646.32Z"/><path class="cls-3" d="M242.2,637.13h1.7l.18,1.76h.06a5.82,5.82,0,0,1,4.08-2.06c2.56,0,3.71,1.66,3.71,4.76v7.69h-2.06v-7.43c0-2.26-.68-3.23-2.29-3.23-1.24,0-2.1.63-3.32,1.87v8.79H242.2Z"/><path class="cls-3" d="M258.11,645.53v-6.72h-1.8v-1.56l1.9-.12.24-3.4h1.72v3.4h3.29v1.68h-3.29v6.75c0,1.49.48,2.35,1.88,2.35a3.88,3.88,0,0,0,1.38-.33l.4,1.55a7.09,7.09,0,0,1-2.25.45C259,649.58,258.11,648,258.11,645.53Z"/><path class="cls-3" d="M274.09,643.23c0-4,2.48-6.4,5.26-6.4a5,5,0,0,1,3.4,1.41l-.09-2.08v-4.68h2.06v17.8H283l-.17-1.43h-.07a5.41,5.41,0,0,1-3.69,1.73C276.06,649.58,274.09,647.27,274.09,643.23Zm8.57,3v-6.37a4.25,4.25,0,0,0-3-1.27c-1.94,0-3.49,1.88-3.49,4.65s1.21,4.64,3.34,4.64A4.18,4.18,0,0,0,282.66,646.2Z"/><path class="cls-3" d="M289.8,643.23c0-4,2.67-6.4,5.46-6.4,3.1,0,4.85,2.23,4.85,5.71a7.49,7.49,0,0,1-.09,1.16h-8.19c.15,2.58,1.72,4.25,4,4.25a5.32,5.32,0,0,0,3-1l.74,1.34a7.13,7.13,0,0,1-4,1.26C292.38,649.58,289.8,647.22,289.8,643.23Zm8.49-1c0-2.43-1.09-3.76-3-3.76-1.71,0-3.24,1.37-3.49,3.76Z"/><path class="cls-3" d="M303.63,647.9l1-1.36a5.45,5.45,0,0,0,3.58,1.44c1.6,0,2.39-.85,2.39-1.88,0-1.25-1.43-1.81-2.78-2.31-1.7-.62-3.62-1.46-3.62-3.51s1.56-3.45,4.19-3.45a6.17,6.17,0,0,1,3.78,1.37l-1,1.32a4.53,4.53,0,0,0-2.77-1.08c-1.53,0-2.23.81-2.23,1.74,0,1.15,1.32,1.59,2.69,2.11,1.75.66,3.71,1.37,3.71,3.68,0,2-1.57,3.61-4.44,3.61A7.32,7.32,0,0,1,303.63,647.9Z"/><path class="cls-3" d="M322.89,637.25l1.74-.12h4.54v1.68h-6.28Zm1.65-2c0-2.47,1.13-4,3.56-4a5.22,5.22,0,0,1,2,.42l-.44,1.57a3.21,3.21,0,0,0-1.37-.32c-1.15,0-1.71.8-1.71,2.37v14.06h-2.06Z"/><path class="cls-3" d="M333.38,637.13h1.7l.17,2.22h.07a4.19,4.19,0,0,1,3.45-2.52,2.85,2.85,0,0,1,1.3.25l-.38,1.81a3.48,3.48,0,0,0-1.18-.2c-1,0-2.26.74-3.08,2.79v7.8h-2.05Z"/><path class="cls-3" d="M342.58,646.13c0-2.65,2.28-4,7.46-4.53,0-1.57-.53-3.07-2.51-3.07a6.64,6.64,0,0,0-3.62,1.3l-.81-1.41a8.94,8.94,0,0,1,4.77-1.59c3,0,4.22,2,4.22,5v7.45h-1.7l-.17-1.45h-.07a6.47,6.47,0,0,1-4,1.75A3.3,3.3,0,0,1,342.58,646.13Zm7.46.19V643c-4.07.49-5.45,1.48-5.45,3,0,1.38.94,1.94,2.13,1.94A5,5,0,0,0,350,646.32Z"/><path class="cls-3" d="M357.43,633.31a1.42,1.42,0,0,1,2.84,0,1.42,1.42,0,0,1-2.84,0Zm.37,3.82h2.06v12.15H357.8Z"/><path class="cls-3" d="M364.48,647.9l1-1.36a5.45,5.45,0,0,0,3.58,1.44c1.6,0,2.39-.85,2.39-1.88,0-1.25-1.44-1.81-2.78-2.31-1.7-.62-3.62-1.46-3.62-3.51s1.55-3.45,4.19-3.45A6.17,6.17,0,0,1,373,638.2l-1,1.32a4.53,4.53,0,0,0-2.77-1.08c-1.53,0-2.24.81-2.24,1.74,0,1.15,1.33,1.59,2.7,2.11,1.75.66,3.71,1.37,3.71,3.68,0,2-1.57,3.61-4.44,3.61A7.32,7.32,0,0,1,364.48,647.9Z"/><path class="cls-3" d="M384.15,643.23c0-4.06,2.65-6.4,5.63-6.4s5.63,2.34,5.63,6.4-2.65,6.35-5.63,6.35S384.15,647.25,384.15,643.23Zm9.14,0c0-2.79-1.42-4.68-3.51-4.68s-3.51,1.89-3.51,4.68,1.42,4.64,3.51,4.64S393.29,646,393.29,643.23Z"/><path class="cls-3" d="M400.31,644.83v-7.7h2.06v7.44c0,2.26.68,3.23,2.29,3.23,1.24,0,2.1-.62,3.26-2v-8.62H410v12.15h-1.7l-.17-1.9H408a5.15,5.15,0,0,1-4,2.2C401.46,649.58,400.31,647.93,400.31,644.83Z"/><path class="cls-3" d="M422.83,637.13h1.69l.18,1.76h.07a5.77,5.77,0,0,1,4.07-2.06c2.56,0,3.71,1.66,3.71,4.76v7.69H430.5v-7.43c0-2.26-.69-3.23-2.3-3.23-1.24,0-2.1.63-3.32,1.87v8.79h-2.05Z"/><path class="cls-3" d="M437.47,643.23c0-4.06,2.66-6.4,5.63-6.4s5.63,2.34,5.63,6.4-2.65,6.35-5.63,6.35S437.47,647.25,437.47,643.23Zm9.14,0c0-2.79-1.42-4.68-3.51-4.68s-3.5,1.89-3.5,4.68,1.41,4.64,3.5,4.64S446.61,646,446.61,643.23Z"/><path class="cls-3" d="M453.8,637.13h1.7l.17,1.76h.07a5.82,5.82,0,0,1,4.08-2.06c2.56,0,3.71,1.66,3.71,4.76v7.69h-2.06v-7.43c0-2.26-.68-3.23-2.29-3.23-1.24,0-2.1.63-3.32,1.87v8.79H453.8Z"/><path class="cls-3" d="M468.93,648a1.49,1.49,0,1,1,1.49,1.55A1.5,1.5,0,0,1,468.93,648Z"/></g><g id="image"><rect class="cls-4" x="52.2" y="316.28" width="110.11" height="116.59"/><rect class="cls-5" x="100.56" y="368.65" width="78.92" height="83.57"/><path class="cls-6" d="M1179.8,421h0a8.62,8.62,0,0,0-7.7-9.4l-11.13-1.1a8.62,8.62,0,0,0-9.4,7.7h0a8.62,8.62,0,0,0,7.71,9.4l11.12,1.11A8.63,8.63,0,0,0,1179.8,421Z"/><rect class="cls-7" x="1168.48" y="419.09" width="16.91" height="7.37" transform="translate(67.24 999.4) rotate(-47.22)"/><path class="cls-8" d="M1374.18,577.73,1269,505.87l38.15-152.06c3.54-14.1,19.52-20.1,33.18-12.45l75,41.94c10.41,5.82,16,17.78,10.75,41.55l-36.93,147.21A9.74,9.74,0,0,1,1374.18,577.73Z"/><path class="cls-9" d="M1174.53,559.25c-4.06-20.82-6.18-45.44.9-65.77,5.87-16.85,19-23.07,34.85-29.42a224.52,224.52,0,0,1,29.65-9.32c3.38-.83,6.79-1.58,10.18-2.37a14.62,14.62,0,0,1,3.38-.82c1.88.08,1.17-1.25-.9,1.59l-.57,4.41c.42.75.85,1.5,1.28,2.24-4.86-4.19,1.62-12.77,6.93-9,8,5.68,8.47,17.71,9.12,26.61.81,11.22.39,22.46.35,33.69,0,7.36-11.46,7.38-11.44,0,0-8.89.32-17.77,0-26.66a120.59,120.59,0,0,0-1.15-14.47c-.31-2-.79-8-2.66-9.29l6.93-9c11.17,9.62-17.83,13.91-21.09,14.74A202,202,0,0,0,1208.69,477c-8,3.52-15.76,6.61-20,14.53-6.52,12-6.42,27.5-5.78,40.77a168,168,0,0,0,2.7,23.88c1.4,7.19-9.63,10.27-11,3Z"/><path class="cls-10" d="M1379.19,572.58,1260,505.87l38.14-152.06c3.54-14.1,19.52-20.1,33.19-12.45l75,41.94c10.4,5.82,16,17.78,13.28,28.52Z"/><path class="cls-9" d="M1381.57,582.23l.11-8.83-12.17-.42-95.25-55c-5.48-3.16-15.15-2.76-21.48.89l-82,47.34-7.67-.26-.2,8.79h0c0,2,1.19,4,3.68,5.4L1270.32,640c5.48,3.16,15.15,2.76,21.48-.89l84.63-48.86c2.94-1.7,4.65-3.81,5.11-5.9h0v0A5.18,5.18,0,0,0,1381.57,582.23Z"/><path class="cls-10" d="M1270.32,629.86,1166.6,570c-5.48-3.17-4.79-8.75,1.55-12.41l84.63-48.86c6.33-3.65,16-4,21.48-.89L1378,567.7c5.48,3.17,4.79,8.75-1.55,12.41L1291.8,629C1285.47,632.62,1275.8,633,1270.32,629.86Z"/><path class="cls-9" d="M1320.94,594.84,1279.64,571c-2.18-1.26-1.9-3.48.62-4.94L1314,546.6c2.52-1.46,6.37-1.62,8.55-.36l41.3,23.85c2.19,1.26,1.91,3.48-.61,4.94l-33.7,19.45C1327,595.94,1323.13,596.1,1320.94,594.84Z"/><path class="cls-10" d="M1282.71,387.35a11.09,11.09,0,0,0-14.66,5.58c-11.59,25.83-26.62,55.61-34.69,67.36-9.83-8.25-29.59-27-46.63-43.87a1.42,1.42,0,0,0-2.06.07l-12.88,14.45a1.42,1.42,0,0,0,0,2c4.3,4.24,14.62,14.37,25.15,24.33,8.13,7.69,14.82,13.79,19.87,18.13,7.37,6.33,12.29,10.29,17.7,10.29a11.71,11.71,0,0,0,3.2-.45c6-1.66,12.62-6.22,32.39-45.24,9.6-18.93,17.8-37.18,18.14-37.95A11.09,11.09,0,0,0,1282.71,387.35Z"/><path class="cls-11" d="M895.25,704.51h0a4,4,0,0,0,3.38-4.55L882.34,590.14a4,4,0,0,0-4.55-3.38h0a4,4,0,0,0-3.38,4.55L890.7,701.13A4,4,0,0,0,895.25,704.51Z"/><path class="cls-12" d="M801.35,563.44,869,615.72c11.05,6.77,19.35,0,19.34-11.58l1.29-18.93c0-11.63-9.06-26.68-20.11-33.45L801.29,510c-11-6.77-20.08-2.79-20.07,8.84V530C781.24,541.62,790.29,556.67,801.35,563.44Z"/><path class="cls-13" d="M676.31,718c21.9-38.48,71.16-57,125-72.15l87.65,50.61L875.79,704c12.12,2.26,23.51,6.14,33.12,11.69,32.52,18.77,32.35,49.3-.37,68.19s-85.59,19-118.1.21C780.83,778.57,774.1,772,770.19,765l-6.23,3.6Z"/><path class="cls-12" d="M794.67,678.6l89.58-57.41c9-5.18,2.68-28.67-10.73-37.37l-34.81-22.61c-13.41-8.71-32.58-17.18-41.56-12l-96,61.5c-9,5.18-5.35,16.55,8.07,25.25l34.81,22.61C757.46,667.28,785.69,683.78,794.67,678.6Z"/><path class="cls-14" d="M798.23,684.67l85.49-50.26c8.64-5,8.29-11.06,8.29-11.06.75-7.71-4.48-12.79-13.12-7.81l-84.5,49.75c-8.64,5-11.9,10.19-10.51,16.38C783.88,681.67,787.28,690.32,798.23,684.67Z"/><path class="cls-15" d="M820.18,665s46.32-15.26,50.75-39.39l-50.75-12.06Z"/><path class="cls-11" d="M766.86,770.72h0a4,4,0,0,1-3.37-4.55l16.29-109.82a4,4,0,0,1,4.55-3.38h0a4,4,0,0,1,3.38,4.56L771.42,767.34A4,4,0,0,1,766.86,770.72Z"/><path class="cls-6" d="M790.58,627.41c15,6.6,27.93,17.47,39.11,29.37a34,34,0,0,1,4.69,6c.89,1.49.59,1,.35.48a14.11,14.11,0,0,1,.66,2,8.88,8.88,0,0,1,.52,2.83c.25,3.28,0,6.55,0,9.83,0,16.55.22,33.11.33,49.66q.06,8.75.11,17.5c.09,12.76,19.93,12.79,19.84,0l-.3-45.63c-.05-7.22-.17-14.45-.14-21.68a108.74,108.74,0,0,0-.12-11.42,35.88,35.88,0,0,0-8.24-19.37c-12-15-29.16-28.93-46.76-36.64-4.9-2.15-10.65-1.44-13.57,3.56-2.46,4.21-1.37,11.41,3.56,13.57Z"/><path class="cls-15" d="M837.77,762.59l1.29-.67a1.51,1.51,0,0,0,.63-2h0a1.5,1.5,0,0,0-2-.64l-1.28.67a1.51,1.51,0,0,0-.64,2h0A1.51,1.51,0,0,0,837.77,762.59Z"/><path class="cls-15" d="M839.87,760.54v-6.79a1.5,1.5,0,0,0-1.5-1.49h0a1.49,1.49,0,0,0-1.49,1.49v6.79a1.49,1.49,0,0,0,1.49,1.49h0A1.5,1.5,0,0,0,839.87,760.54Z"/><path class="cls-15" d="M832.4,742.37c1.52,7.69,3.19,19.13,3.19,19.13l2.78.53-.44-8c.34-1.19,2.38.11,3.25,1.37,5.13,7.48,1.85,12.17,6.87,15.6,0,0,11.68,5.31,23.44,3.13,0,0,5.53-2.06,3.15-5.43-4.69-6.64-22-25.11-25.38-29.46l-.92-.29L842.15,729c-2.34-.68-6.71,2.8-8.37,6C832.4,736.51,831.77,739.17,832.4,742.37Z"/><path class="cls-6" d="M843.74,728.16l5.21,4.32s13,20.44,15.52,24.52c2.87,4.75-14.3,12.92-26.1-15C829.77,727.27,843.74,728.16,843.74,728.16Z"/><path class="cls-6" d="M820.53,614.1c14.6,6.39,27.07,16.8,38,28.23a25,25,0,0,1,4.81,6.35,16.71,16.71,0,0,1,1,4.86c.07,3.74-.23,7.46-.24,11.19,0,15.66.58,31.35.87,47q.16,8.6.32,17.19c.24,12.75,20.08,12.79,19.84,0q-.4-22.15-.82-44.3c-.13-6.71-.42-13.44-.38-20.15,0-4.22.5-8.43.14-12.65a34.39,34.39,0,0,0-7.71-19.17c-5.66-7.15-12.82-13.43-19.89-19.15-8-6.49-16.47-12.39-26-16.54-4.9-2.15-10.64-1.44-13.57,3.56-2.46,4.2-1.37,11.41,3.56,13.57Z"/><path class="cls-16" d="M813,524.85s12.28,17.33,18.86,20c15.37,6.14,5.27-32.34,20.52-64.16"/><path class="cls-17" d="M798.45,470.87c3.59,10.49,6.13,21.42,10,31.8,3,7.9,8.29,14.21,13.8,20.5,9.7,11.09-6.5,27.42-16.26,16.25-7.39-8.44-14.31-16.91-18.48-27.41-4.51-11.36-7.28-23.46-11.24-35-4.82-14,17.38-20.05,22.17-6.12Z"/><path class="cls-18" d="M160.54,1000H0V851.29A248.67,248.67,0,0,1,160.54,1000Z"/><path class="cls-4" d="M0,160.54V0H148.71A248.67,248.67,0,0,1,0,160.54Z"/><polygon class="cls-13" points="1230.67 868.99 913.41 675.24 1100.89 561.12 1419.23 755.7 1230.67 868.99"/><path class="cls-19" d="M1343.08,425.49l-45.42-26,9-19.23c12.49,1.09,18.48,4.36,27.91,12.44Z"/><path class="cls-7" d="M1279,391c-5.85,5.67-5.85,9.56-6.91,18a18.09,18.09,0,0,0,11.41,19.15l63.4,27.61s25.79-26.72,10.83-37.88c-8.06-6-20.52-15.59-30.31-23.14C1313.06,383.67,1292.54,377.9,1279,391Z"/><path class="cls-7" d="M1252.21,537.46c2,3.39,18.51-84,22.1-140l86.92,53.5c-6.85,41.77-24.2,72.29-26.85,123.8Z"/><path class="cls-6" d="M1308.86,400.23l-3.5-33.78,23.38,8.65,2.82,27.58C1332.44,407.21,1312.81,417.67,1308.86,400.23Z"/><path class="cls-20" d="M1286.37,570.61c7,4.17,14.59,8,22.32,11.82,5.8,4.27,22.51-6.76,22.51-6.76,2.65-51.51,23.18-82.93,30-124.7l-3-1.86C1349,497.46,1329.3,573.27,1286.37,570.61Z"/><path class="cls-19" d="M1348.83,404s-31.76,26-47.71,94.71c-6.58,28.33-4.37,55.46-8.14,66.22-2.39,6.82-8.25,6.06-2.24,10.08a57.15,57.15,0,0,0,34.38,9.94c5.43-.22,21-18.25,22-23.23,2.63-42.58,13.47-71.19,16.66-118l.67-18.27c0-1.9.69-8.66-.47-10.41Z"/><path class="cls-19" d="M1303.58,387.83s-25.69,44.62-34,163.43a5.45,5.45,0,0,1-8.41,4,108.32,108.32,0,0,1-10.67-8,9.53,9.53,0,0,1-3.29-9.17c4.72-23.53,20-118.34,20-118.34s2.82-41.95,36-37.06C1342.55,388.48,1303.58,387.83,1303.58,387.83Z"/><path class="cls-21" d="M1308.65,392.93s11.28-5.49,11.34-5.59-4.76,9.75-10.39,12.1Z"/><path class="cls-22" d="M1311.56,420.56h0a9.36,9.36,0,0,0,11-6.46l2.13-7.52c-7.26,2.57-12.91.46-16.8-5.52l-2.52,9.05A8.34,8.34,0,0,0,1311.56,420.56Z"/><path class="cls-22" d="M1313.93,417l-17.25,72.83a3.58,3.58,0,0,1-1.35,2l-7.06,5.33a3.5,3.5,0,0,1-5.4-1.33l-2.42-6.05a3.37,3.37,0,0,1,0-2.42l27.52-72.7Z"/><path class="cls-23" d="M1317.19,403.84s-9.39-.39-9.86-16.4l-6.19-1.09c-.92.63-2.69.11-4,5.41a23.66,23.66,0,0,0-.25,9.55l1.59,9.18a3.1,3.1,0,0,0,4.7,1.94Z"/><path class="cls-24" d="M1317.43,403.89a9.45,9.45,0,0,1-4.27-1.69l-14.65,8.39.1.57a2.69,2.69,0,0,0,4,1.69Z"/><path class="cls-23" d="M1312.42,402.92s10.41,4,22.18-10.25l6.28,8.7c.51,1.32.57,1.47-.6,2.57L1325,418.28c-1.79,1.68-4.82,1.37-5.73-.6Z"/><path class="cls-24" d="M1312.15,402.84a36.9,36.9,0,0,0,5.16.61l7.65,14.93-.49.46c-1.54,1.43-4.13,1.17-4.94-.49Z"/><path class="cls-11" d="M1287.43,384.35c-5.51,15.75-14.59,33.48-13.62,45l8.06-.39-6.73,13.78-.36,56.26s6.32-58.41,31.81-118.11C1299,380.08,1296.43,381.36,1287.43,384.35Z"/><path class="cls-6" d="M1311.59,393.17l-6.95.23c-10.71.35-19.42-7.88-19.36-18.29l.2-34.38c.07-10.42,8.88-19.23,19.59-19.58l7-.23c10.71-.35,19.42,7.88,19.35,18.29l.64,25.11C1332,374.73,1322.3,392.82,1311.59,393.17Z"/><path class="cls-25" d="M1312.84,346.52c-7.4,3.34-11.8,3.08-19.73.06-8.61-3.28-9.68-14.21-2.58-20.43,3.85-3.36,4.16-5.3,12.18-8.42,22.76-8.86,48.68,3.27,48.53,28.18,0,0-.84,32.72-21.45,37.76l-1-10.43s5-2.88.53-7.41a29.58,29.58,0,0,0-5.69-4.25c-2.85-1.71-3.33-5.72-2.89-9.86S1316.81,344.73,1312.84,346.52Z"/><path class="cls-6" d="M1335.06,374.33c-3.22,2.52-6.75,1.66-7.89-1.94s.55-8.56,3.77-11.08,6.75-1.65,7.88,1.94S1338.27,371.81,1335.06,374.33Z"/><path class="cls-26" d="M1285.81,361.81c-.06,10.41,8.65,18.64,19.36,18.29l6.95-.23c6.65-.22,10.44-8.08,13.75-16.87h0a2.84,2.84,0,0,0,4-.86l.48-.74-.94,8.24c-.06,10.41-7.12,24.65-17.83,25l-7,.22c-10.71.36-19.42-7.87-19.36-18.29l.2-34.38A18.57,18.57,0,0,1,1286,338Z"/><path class="cls-9" d="M1290.88,633.35a180.52,180.52,0,0,1-3.12-29.42c-.4-14.72.48-32,9.2-44.48,5.65-8.11,14.86-11.89,23.3-16.46,8.86-4.8,17.8-9.64,27.21-13.29,12.82-5,27.17-5.13,34.61,8.49,8.67,15.84.93,32.44.36,48.85-.24,7.06-11.25,7.09-11,0,.41-12,5.1-23.31,3.41-35.52-.79-5.67-3.27-12.28-9.37-13.94-4.68-1.27-10.09.83-14.4,2.47-8,3.05-15.64,7.26-23.18,11.31-7.25,3.91-16.87,7.21-21.8,14.15-7.39,10.4-7.62,25.48-7.35,37.7a162.58,162.58,0,0,0,2.75,27.22c1.34,6.91-9.26,9.88-10.62,2.92Z"/><path class="cls-11" d="M1353.74,407.72l-19.19,39.93L1324.27,445l.32,16.5-25.16,44.33a350.32,350.32,0,0,1,25.09-77.08c4.86-10.41,12.31-23.93,11.43-34.18C1342.8,398.57,1348.08,400.93,1353.74,407.72Z"/><path class="cls-27" d="M1416.94,758.1l.85-.11a4.68,4.68,0,0,0,4-5.24l-18.4-143.21a4.68,4.68,0,0,0-5.24-4l-.86.11a4.68,4.68,0,0,0-4,5.24l18.41,143.21A4.67,4.67,0,0,0,1416.94,758.1Z"/><path class="cls-11" d="M1230.67,869h0a5.06,5.06,0,0,1-4.61-5.48l19.9-231a5.06,5.06,0,0,1,5.48-4.61h0a5.06,5.06,0,0,1,4.61,5.48l-19.9,231A5.07,5.07,0,0,1,1230.67,869Z"/><polygon class="cls-10" points="1245.99 748.42 1236.36 741.83 1239.11 714.08 1249.38 715.68 1245.99 748.42"/><rect class="cls-11" x="924.43" y="521.42" width="8.39" height="158.03" rx="3.58" transform="translate(98.13 -129.74) rotate(8.44)"/><rect class="cls-28" x="916.57" y="512.46" width="26.86" height="15.6"/><rect class="cls-28" x="1404.95" y="612.2" width="26.86" height="15.6"/><path class="cls-28" d="M1251.75,724.87,920,533.33c-5.2-3-4.55-8.24,1.45-11.71l154.81-89.38c6-3.46,15.09-3.84,20.29-.84L1428.3,622.94c5.2,3,4.55,8.25-1.46,11.72L1272,724C1266,727.5,1257,727.88,1251.75,724.87Z"/><path class="cls-3" d="M1251.75,709.91,920,518.37c-5.2-3-4.55-8.25,1.45-11.71l154.81-89.38c6-3.47,15.09-3.84,20.29-.84L1428.3,608c5.2,3,4.55,8.25-1.46,11.71L1272,709.07C1266,712.54,1257,712.91,1251.75,709.91Z"/><path class="cls-29" d="M1030.42,535.93l-57-21.81a3.14,3.14,0,0,1-.67-5.51l69.6-48.22,52,20.24a3.13,3.13,0,0,1,.83,5.35l-61.67,49.47A3.12,3.12,0,0,1,1030.42,535.93Z"/><path class="cls-15" d="M972.71,513.56h-.09a4.35,4.35,0,0,1-4-4.69l.55-6.75a4.37,4.37,0,0,1,4.69-4H974a4.36,4.36,0,0,1,4,4.69l-.56,6.75A4.35,4.35,0,0,1,972.71,513.56Z"/><path class="cls-15" d="M971.53,502.23l-.71-.28c-1.52-.59-1.56-2-.09-3.2l62-49.72a6.17,6.17,0,0,1,5.42-1.06l.71.27c1.51.59,1.55,2,.09,3.21l-62,49.72A6.18,6.18,0,0,1,971.53,502.23Z"/><path class="cls-14" d="M1026.15,534.52,970.76,513l67.29-54,52,20.24a3.13,3.13,0,0,1,.82,5.35L1029.24,534A3.14,3.14,0,0,1,1026.15,534.52Z"/><path class="cls-23" d="M1026.45,529.53l-54.66-21.26,67.29-54,49.83,19.38a4.49,4.49,0,0,1,1.18,7.68l-59.21,47.51A4.49,4.49,0,0,1,1026.45,529.53Z"/><path class="cls-22" d="M1027.31,524.22l-55.38-21.55,67.28-54,52,20.24a3.12,3.12,0,0,1,.82,5.35l-61.66,49.48A3.16,3.16,0,0,1,1027.31,524.22Z"/><path class="cls-23" d="M998.49,507.49l-16.35-6.36c-1.87-.72-1.92-2.5-.11-3.95h0a7.61,7.61,0,0,1,6.68-1.32l16.34,6.36c1.87.73,1.92,2.51.12,4h0A7.58,7.58,0,0,1,998.49,507.49Z"/><path class="cls-30" d="M1057.25,479.05l-1-.29c2.09-4.37-3.94-8.47-6-9.74a2.3,2.3,0,0,0-1.52-.29,42.31,42.31,0,0,0-13.67,4.79,65.11,65.11,0,0,0-11.89,5.57l-.55.35c-.72.2-1.43.42-2.15.66a48.64,48.64,0,0,0-11.32,5.28,24.65,24.65,0,0,0-3.37,2.32,2.25,2.25,0,0,0,0,3.45,22.48,22.48,0,0,0,6.17,3.78,15,15,0,0,0,1.34,5.67,3.84,3.84,0,0,0,3.68,1.88,3,3,0,0,0,2-.78,1.34,1.34,0,0,0,.3-1.35,24.83,24.83,0,0,1-.72-4.09,17.88,17.88,0,0,0,7-1.4c12.48-5.14,3.93-12.85,3.93-12.85l.29-.14.91-.41.29-.14s8.85,8.35,21.47,1.1l.4-.24c1.64.35,2.65.6,2.69.61,1.84.45,3.28,0,3.86-.61a1.55,1.55,0,0,0,.13-.17C1059.93,481.29,1059.3,479.72,1057.25,479.05Zm-3.56-1.35c0-.26.09-.52.12-.77A3,3,0,0,1,1053.69,477.7Z"/><path class="cls-31" d="M1016,499.11a13.6,13.6,0,0,1,.52-12.86c1.85-3.22,5.06-6.25,9.55-9a70.27,70.27,0,0,1,16.49-7.07l.57.61a79.5,79.5,0,0,0-18.66,12.78c-5.33,5-2.38,15.2-2.35,15.3a1.35,1.35,0,0,1-.31,1.37,3,3,0,0,1-2.06.79A3.91,3.91,0,0,1,1016,499.11Z"/><path class="cls-31" d="M1023.3,478.25a65.19,65.19,0,0,1,16.83-3.14c7-.35,13.87,0,20.6,2.08,2.08.68,2.72,2.27,2.26,3a1,1,0,0,1-.13.18c-.59.67-2,1.08-3.93.62-.16,0-15.74-3.94-25.11-2.18a126.31,126.31,0,0,0-25.15,7.23l.19-.28S1013.86,481.32,1023.3,478.25Z"/><path class="cls-32" d="M1010.41,487.33a7.41,7.41,0,0,0,6.74,5.77c5.74.47,13.46-.33,15.15-4s1.07-8.81-1.8-10.09S1013.8,481.19,1010.41,487.33Z"/><path class="cls-32" d="M1034.48,476.35a7.41,7.41,0,0,0,6.74,5.77c5.74.47,13.46-.33,15.15-4s1.07-8.81-1.8-10.09S1037.87,470.21,1034.48,476.35Z"/><path class="cls-15" d="M1008.36,486a2.29,2.29,0,0,0,0,3.51c3.27,2.79,10.74,7.62,20.11,3.77,12.7-5.23,4-13.07,4-13.07l.3-.14.93-.42.3-.14s9,8.49,21.83,1.12c9.78-5.63.54-12-2.21-13.63a2.31,2.31,0,0,0-1.54-.3c-3.1.49-14.3,2.79-21.69,11.09l-.08,0C1017.6,479.67,1011.16,483.66,1008.36,486Zm29.32-7.27h0a2.3,2.3,0,0,1-.2-3.72,30.94,30.94,0,0,1,13.8-6,2.33,2.33,0,0,1,1.65.36c2.22,1.49,8,6.08.8,9.73A16.78,16.78,0,0,1,1037.68,478.72Zm-24.86,11.07a2.3,2.3,0,0,1-.18-3.86c2.41-1.72,6.88-4.09,14.46-5.38a2.34,2.34,0,0,1,1.82.46l1.38,1.09s6.6,5.13-2.85,9A16.32,16.32,0,0,1,1012.82,489.79Z"/><path class="cls-23" d="M1016.29,490.22h0a.69.69,0,0,1-.63-.74l.34-4.15a.69.69,0,0,1,.75-.63h0a.69.69,0,0,1,.63.75l-.34,4.14A.69.69,0,0,1,1016.29,490.22Z"/><path class="cls-23" d="M1018.79,489.66h0a.47.47,0,0,1-.43-.51l.38-4.58a.48.48,0,0,1,.51-.44h0a.47.47,0,0,1,.43.51l-.38,4.59A.48.48,0,0,1,1018.79,489.66Z"/><path class="cls-23" d="M1041.33,478.72h0a.69.69,0,0,1-.63-.74l.34-4.15a.69.69,0,0,1,.75-.63h0a.69.69,0,0,1,.63.75l-.34,4.14A.69.69,0,0,1,1041.33,478.72Z"/><path class="cls-23" d="M1043.83,478.16h0a.47.47,0,0,1-.43-.51l.38-4.58a.48.48,0,0,1,.51-.44h0a.48.48,0,0,1,.43.51l-.38,4.59A.47.47,0,0,1,1043.83,478.16Z"/><polygon class="cls-33" points="1231.69 570.61 1176.93 601.77 1098.39 557.55 1151.92 524.52 1231.69 570.61"/><path class="cls-29" d="M1218.18,571.17l0-2.75-3.54,1.37-.76-1.75-88.58-51.14a4.65,4.65,0,0,0-4.18.17l-38.14,22v-.62l-7,2.84v2.92h0a1.36,1.36,0,0,0,.67.75l92.18,53.23A4.69,4.69,0,0,0,1173,598l44.17-25.5a1.75,1.75,0,0,0,1-1.36Z"/><path class="cls-34" d="M1168.76,595.3l-92.18-53.22c-1.07-.62-.94-1.7.3-2.42l44.17-25.5a4.65,4.65,0,0,1,4.18-.17l92.18,53.22c1.06.61.93,1.7-.3,2.41l-44.17,25.5A4.66,4.66,0,0,1,1168.76,595.3Z"/><path class="cls-29" d="M1175.05,561l-22.31-12.88c-.25-.15-.22-.41.08-.58l10.69-6.18a1.13,1.13,0,0,1,1,0l22.31,12.88c.26.15.22.41-.07.59L1176.07,561A1.15,1.15,0,0,1,1175.05,561Z"/><path class="cls-23" d="M1166.41,535.4a10,10,0,0,0-4.25-6.42l-91.52-52a2.31,2.31,0,0,0-2-.32h0a1.26,1.26,0,0,0-.47.36l-3,3.19,2.75-.25,8.7,56.24a10,10,0,0,0,4.24,6.42l86.54,49.18,2.79,3.14.35.77c1.75.38,5.94-2.59,5.94-2.59Z"/><path class="cls-15" d="M1169.07,598l-91.52-52a10,10,0,0,1-4.25-6.42l-8.79-56.86c-.38-2.43.91-3.49,2.88-2.37l91.52,52a10,10,0,0,1,4.25,6.42l8.79,56.86C1172.33,598.09,1171,599.15,1169.07,598Z"/><path class="cls-23" d="M1120.43,543c.47,3-2.27,3.7-6.12,1.52s-7.34-6.41-7.81-9.43,2.27-3.7,6.12-1.51S1120,540,1120.43,543Z"/><path class="cls-11" d="M684.31,722.65h0a4,4,0,0,1-3.37-4.55l16.29-109.82a4,4,0,0,1,4.55-3.37h0a4,4,0,0,1,3.38,4.55L688.87,719.28A4,4,0,0,1,684.31,722.65Z"/><path class="cls-14" d="M773,574.29a41.83,41.83,0,0,0,21.44-52.7L774,467.44c-5.62-14.88-21.26-21.38-33.87-14.09l-50.43,29.17c-9.08,5.25-14.17,16.41-12.7,27.9l14.34,102Z"/><path class="cls-25" d="M784.32,418.92c3.53,6.27,7.61,21.48,4.33,29-.53,1.21-10.88,29.63-12.06,28.93s-15.41-5.05-16.43-6c-3-2.75-24.1,15.9-27.17,13.21-4.15-3.64-5.9-56.45-6.07-62-.22-7,35-6.71,39.38-12.26a31.8,31.8,0,0,0,2.55-3.26h0c1-1.72,1.52-4.94,4-4.55,2,.32,3.49,3.46,4.54,4.89C780.46,411.06,781.16,413.32,784.32,418.92Z"/><path class="cls-18" d="M801.18,564.61c49.24,26.35,69.75,44.24,69.75,61a45.52,45.52,0,0,0-30.78,5.27c-22.83,13.26-20,34.12-20,34.12s-76.43-15.13-80.83-61c-2.79-29.08,0-27.51,0-27.51S779.75,592.59,801.18,564.61Z"/><path class="cls-7" d="M726.64,476.3c9.1-10.12,26.63-15.58,39.82-16.25,3.7-.19,3.69,5.56,0,5.75-11.71.59-27.71,5.61-35.76,14.56-2.48,2.76-6.53-1.31-4.06-4.06Z"/><path class="cls-35" d="M790.4,480.6s15,20.88,14.21,34c-.52,8.37-6,18.07-6.71,20.78-5.92,22.21-1.57,28.58-2,34.66,0,0-7.26,12.34-55.88,4.35L714.9,512.54Z"/><path class="cls-35" d="M719.48,526.16c-2-1-2.59-4.1-2.59-4.1-1.95-11.18-8.43-15.94,2.7-35.91,1.79-3.21,27.78-18.64,47.7-23.43a21.49,21.49,0,0,1,24.08,11.42c2.61,5.19,5.44,15.59,5.44,15.59,2.15,20.62-8.57-6-9.36,5.5,0-.28.09-.56.11-.84,0,0-1.39,19.42-2.42,34.46-.63,9.38-1.08,16.16-1.1,17.11v.12l-33.33,29.54L730.43,543.5h0Z"/><path class="cls-6" d="M762.13,463.15a6.89,6.89,0,0,1,6.73,2.44c4.55,5.52,11.91,17.47,1.25,27.57-14.4,13.65-41.82-13.42-41.82-13.42C739.93,471.48,751.29,465.41,762.13,463.15Z"/><path class="cls-6" d="M760.6,474.78l1.65-34.38-19.09,10.73-1.33,28.07C741.27,483.84,758,492.71,760.6,474.78Z"/><path class="cls-21" d="M760.74,466s-10.15-2.78-10.2-2.86,4.53,6,9.62,7.68Z"/><path class="cls-36" d="M724.65,520a64.77,64.77,0,0,0,7.75,11.48,31.61,31.61,0,0,0,33.59,10c18-5.4,35.87-15.7,35.87-15.7s-6.43,25.76-2.83,40.35c1.67,6.76-2.54,1.63-2.54,1.63,0,6.56-8.6,7-8.6,7-22.63,8.48-47.87-.34-47.87-.34L722.57,531.6Z"/><path class="cls-15" d="M804.31,561.65h0a4.18,4.18,0,0,1-.78,4.28c-3.76,4.23-14.15,13.69-33,15.11-16.11,1.22-26-.53-30.85-1.86a4.2,4.2,0,0,1-3.06-4.75l.22-1.31a4.18,4.18,0,0,1,5-3.39c9,2,30.23,5.49,43.41-1.28,6.08-3.12,9.83-5.94,12.15-8.27A4.18,4.18,0,0,1,804.31,561.65Z"/><path class="cls-23" d="M770.66,461.77c3.29,5.45,4.91,12.75,6.26,18.89s.66,9.64-4.82,13.53c-15.28,10.85-33.18-2.48-44.78-12.49-2.8-2.42,1.28-6.47,4.07-4.07,8.39,7.25,23.08,19.15,34.74,13.27,7.76-3.91,5.47-8.52,3.53-15.14-1.06-3.63-2-7.82-4-11.09s3-6.06,5-2.9Z"/><rect class="cls-6" x="735.97" y="396.29" width="42.86" height="69.39" rx="18.18" transform="translate(1605.51 631.24) rotate(163.64)"/><path class="cls-25" d="M748.41,423.21c4.71-10.28,20.07-3.42,26.27-7.85,6.72-4.8,2.21-11.82-4.45-16.71-3.58-2.63-7.75-4.54-15.33-5.37-21.2-2.33-38.48,10.83-33.58,32.88,0,0-.54,33.29,18,33.21L740,447.9s-7.07-4.58,2-13.79c2.1-2.15,2.21-2.22,1-5.79S746.83,426.67,748.41,423.21Z"/><path class="cls-25" d="M783.82,431.46s-2.88-10-30.29-16.91-1.24-.32-1.24-.32l22.44-11.52S786.9,411,783.82,431.46Z"/><path class="cls-23" d="M773.74,445,763.86,449a.9.9,0,0,0-.53,1c.36,1.62,1.78,5,7.2,3.21,3.8-1.28,4.6-5,4.72-7.22A1.13,1.13,0,0,0,773.74,445Z"/><path class="cls-37" d="M758.25,438c.1,1.26.7,2.3,1.33,2.31s1.06-1,1-2.25-.69-2.3-1.33-2.32S758.15,436.75,758.25,438Z"/><path class="cls-37" d="M774,432.33c.1,1.26.7,2.3,1.33,2.31s1.06-1,1-2.25-.69-2.3-1.33-2.32S773.88,431.07,774,432.33Z"/><path class="cls-25" d="M759.26,432.17A9.69,9.69,0,0,0,752.8,435c-1,1.12-2.91-.67-1.9-1.78a11.9,11.9,0,0,1,8.17-3.48c1.6,0,1.79,2.46.19,2.45Z"/><path class="cls-25" d="M775.88,426.23a7.94,7.94,0,0,0-6,1.24c-1,.8-2.55-1-1.53-1.84a9.74,9.74,0,0,1,7.5-1.66c1.37.3,1.4,2.56,0,2.26Z"/><path class="cls-23" d="M778.48,581.05l9.24-3.68a7.57,7.57,0,0,0,4.51-8h0a4.72,4.72,0,0,0-6.66-3.57l-9.24,3.67a7.57,7.57,0,0,0-4.51,8h0A4.72,4.72,0,0,0,778.48,581.05Z"/><path class="cls-15" d="M780.23,577.78l5.35-2.12A4.4,4.4,0,0,0,788.2,571h0a2.74,2.74,0,0,0-3.86-2.07L779,571.07a4.4,4.4,0,0,0-2.61,4.64h0A2.73,2.73,0,0,0,780.23,577.78Z"/><path class="cls-23" d="M1290.31,372.07l12.81,5.28a1.15,1.15,0,0,1,.69,1.35c-.47,2.09-2.31,6.54-9.35,4.17-4.93-1.66-6-6.5-6.13-9.37A1.48,1.48,0,0,1,1290.31,372.07Z"/><ellipse class="cls-37" cx="1306.7" cy="364.53" rx="2.5" ry="1.24" transform="translate(795.92 1621.3) rotate(-83.47)"/><path class="cls-37" d="M1290.88,359.52c-.11,1.38-.76,2.51-1.45,2.52s-1.16-1.08-1-2.45.76-2.5,1.45-2.52S1291,358.15,1290.88,359.52Z"/><path class="cls-25" d="M1306.85,358.14a10.57,10.57,0,0,1,7,3.06c1.11,1.22,3.17-.72,2.06-1.94a12.93,12.93,0,0,0-8.89-3.79c-1.74,0-2,2.68-.21,2.67Z"/><path class="cls-25" d="M1287.55,352.88a8.68,8.68,0,0,1,6.51,1.35c1.11.88,2.78-1.12,1.66-2a10.59,10.59,0,0,0-8.16-1.81c-1.5.33-1.52,2.79,0,2.46Z"/><path class="cls-10" d="M1223.37,354.47l-59.19-34.17c-3.83-2.21-7-8.21-7-13.32V277.92c0-5.11,3.14-7.48,7-5.27l59.19,34.17c3.84,2.22,7,8.21,7,13.33V349.2C1230.34,354.32,1227.21,356.69,1223.37,354.47Z"/><path class="cls-3" d="M1219.85,355.65l-59.19-34.18c-3.83-2.21-7-8.21-7-13.32v-29c0-5.12,3.14-7.49,7-5.28L1219.85,308c3.84,2.21,7,8.21,7,13.32v29.05C1226.82,355.49,1223.69,357.86,1219.85,355.65Z"/><path class="cls-38" d="M1194.86,312.32l-33.15-19.15a3.64,3.64,0,0,1-1.53-2.92h0c0-1.12.68-1.65,1.53-1.16l33.15,19.14a3.68,3.68,0,0,1,1.53,2.93h0C1196.39,312.28,1195.71,312.8,1194.86,312.32Z"/><path class="cls-38" d="M1194.86,324l-33.15-19.15a3.64,3.64,0,0,1-1.53-2.92h0c0-1.13.68-1.65,1.53-1.16l33.15,19.14a3.68,3.68,0,0,1,1.53,2.93h0C1196.39,324,1195.71,324.49,1194.86,324Z"/><path class="cls-38" d="M1217,325.08l-12.56-7.25a3.7,3.7,0,0,1-1.53-2.93h0c0-1.12.69-1.64,1.53-1.16L1217,321a3.67,3.67,0,0,1,1.54,2.92h0C1218.51,325.05,1217.82,325.57,1217,325.08Z"/><path class="cls-3" d="M1219.89,347.15l-6.52,15.21c-.49,1.16-2.15,1-3,.18l-12.1-23.41Z"/><path class="cls-10" d="M779.65,365l59.19-34.17c3.84-2.21,7-8.21,7-13.32V288.43c0-5.11-3.14-7.48-7-5.27l-59.19,34.17c-3.83,2.22-7,8.21-7,13.33v29C772.68,364.83,775.82,367.2,779.65,365Z"/><path class="cls-3" d="M783.17,366.16,842.36,332c3.84-2.21,7-8.21,7-13.32V289.61c0-5.12-3.14-7.49-7-5.28l-59.19,34.18c-3.83,2.21-7,8.21-7,13.32v29.06C776.2,366,779.34,368.37,783.17,366.16Z"/><path class="cls-38" d="M808.16,322.83l33.16-19.15a3.67,3.67,0,0,0,1.53-2.92h0c0-1.12-.69-1.64-1.53-1.16l-33.16,19.15a3.67,3.67,0,0,0-1.53,2.92h0C806.63,322.79,807.32,323.31,808.16,322.83Z"/><path class="cls-38" d="M808.16,334.52l33.16-19.15a3.67,3.67,0,0,0,1.53-2.92h0c0-1.12-.69-1.65-1.53-1.16l-33.16,19.14a3.7,3.7,0,0,0-1.53,2.93h0C806.63,334.48,807.32,335,808.16,334.52Z"/><path class="cls-38" d="M786.05,335.59l12.57-7.25a3.7,3.7,0,0,0,1.53-2.93h0c0-1.12-.69-1.64-1.53-1.16l-12.57,7.26a3.69,3.69,0,0,0-1.53,2.93h0C784.52,335.56,785.21,336.08,786.05,335.59Z"/><path class="cls-3" d="M783.14,357.66l6.52,15.21c.49,1.16,2.14,1,3,.19l12.11-23.42Z"/><path class="cls-14" d="M712.52,644.06l68.24,41.78c11,6.77,19.59,3.59,19-7.06l-.59-10.23c-.61-10.65-10.15-24.9-21.2-31.66l-68.24-41.78c-11.06-6.77-19.6-3.6-19,7l.59,10.23C691.92,623,701.46,637.29,712.52,644.06Z"/><path class="cls-6" d="M726.44,519.11c-2.17,13.59-5.51,27-7.29,40.68-1.69,12.92-4.92,26.54,6.6,35.46,17,13.15,38.31,17.55,43.07,41.71,1.91,9.65-12.88,13.78-14.8,4.08-4.78-24.2-35.25-24.52-47.09-43.67-7.24-11.72-4.6-26.08-2.95-39,1.87-14.56,5.34-28.85,7.66-43.34,1.56-9.73,16.35-5.6,14.8,4.08Z"/><path class="cls-35" d="M736.66,503c-10.46,26.42-14.79,52-14.43,80.39.19,14.79-22.8,14.8-23,0-.38-30.26,4.08-58.31,15.25-86.5,5.39-13.6,27.63-7.67,22.17,6.11Z"/><path class="cls-15" d="M867.73,749.27l1.28-.67a1.5,1.5,0,0,0,.63-2h0a1.51,1.51,0,0,0-2-.63l-1.28.67a1.5,1.5,0,0,0-.63,2h0A1.49,1.49,0,0,0,867.73,749.27Z"/><path class="cls-15" d="M869.82,747.23v-6.79a1.51,1.51,0,0,0-1.49-1.5h0a1.5,1.5,0,0,0-1.5,1.5v6.79a1.5,1.5,0,0,0,1.5,1.49h0A1.49,1.49,0,0,0,869.82,747.23Z"/><path class="cls-15" d="M862.35,729.06c1.52,7.69,3.19,19.13,3.19,19.13l2.79.53-.44-8c.33-1.19,2.38.11,3.24,1.37,5.13,7.47,1.85,12.16,6.87,15.6,0,0,11.69,5.31,23.44,3.13,0,0,5.53-2.06,3.15-5.43-4.69-6.65-22-25.11-25.38-29.46l-.92-.29-6.19-9.94c-2.34-.67-6.7,2.81-8.36,6C862.35,723.2,861.73,725.86,862.35,729.06Z"/><path class="cls-6" d="M873.69,714.85l5.21,4.31s13.05,20.45,15.52,24.53c2.87,4.74-14.29,12.92-26.09-15C859.72,714,873.69,714.85,873.69,714.85Z"/><path class="cls-25" d="M749.16,421.87s-11.54,30.22-5.56,46.32c4.95,13.31,20.79,18.23,28.76,38.21a4.45,4.45,0,0,1-6.86,5.13,61.71,61.71,0,0,0-16.26-9.27c-15.17-5.5-22.82-15.33-23.37-22.51S720.65,422,720.65,422l28.86-10.58Z"/><path class="cls-6" d="M736.82,454.5c3.42,1.63,6.44,0,6.76-3.64a10.47,10.47,0,0,0-5.62-9.55c-3.41-1.63-6.44,0-6.76,3.64A10.47,10.47,0,0,0,736.82,454.5Z"/><polygon class="cls-3" points="884.53 548.48 836.11 524.33 864.73 440.72 913.51 465.05 884.53 548.48"/><polygon class="cls-2" points="861.26 462.15 878.63 471.07 884.16 455.69 866.76 446.75 861.26 462.15"/><path class="cls-3" d="M876,464a5.14,5.14,0,0,1-1.89-2.29,1.61,1.61,0,0,1,.46-2,2.19,2.19,0,0,0,.92-1.29l.66-2.37a3.65,3.65,0,0,0-1.84-4l-.23-.12a2.2,2.2,0,0,0-3.32,1.28l-.66,2.37a3.23,3.23,0,0,0,.14,2,1.51,1.51,0,0,1-1,2.19,3.8,3.8,0,0,1-1.79-.25c-2.68-1-3.49,1.87-3.49,1.87l6.33,3.32,1,.54,6.32,3.32A4.31,4.31,0,0,0,876,464Z"/><polygon class="cls-22" points="886.05 457.9 884.67 461.67 887.73 463.15 887.72 463.17 904.99 471.54 906.37 467.77 886.05 457.9"/><polygon class="cls-22" points="875.07 479.34 876.44 475.58 865.41 470.2 864.03 473.97 875.07 479.34"/><polygon class="cls-2" points="883.34 464.9 903.65 474.77 904.16 473.38 883.85 463.51 883.34 464.9"/><polygon class="cls-2" points="881.99 468.46 902.3 478.33 902.81 476.94 882.49 467.07 881.99 468.46"/><polygon class="cls-2" points="889.73 476.43 890.23 475.05 881.06 470.59 880.56 471.98 889.73 476.43"/><polygon class="cls-2" points="878.59 478.29 898.89 488.16 899.4 486.77 879.09 476.9 878.59 478.29"/><polygon class="cls-2" points="886.32 486.26 886.83 484.87 877.66 480.42 877.15 481.81 886.32 486.26"/><polygon class="cls-22" points="870.5 490.83 871.88 487.07 860.85 481.69 859.47 485.47 870.5 490.83"/><polygon class="cls-2" points="874.02 489.79 894.33 499.65 894.84 498.26 874.52 488.39 874.02 489.79"/><polygon class="cls-2" points="881.76 497.76 882.26 496.37 873.09 491.91 872.59 493.31 881.76 497.76"/><polygon class="cls-22" points="865.94 502.33 867.31 498.56 856.28 493.19 854.91 496.96 865.94 502.33"/><polygon class="cls-2" points="869.46 501.28 889.76 511.15 890.27 509.76 869.96 499.89 869.46 501.28"/><polygon class="cls-2" points="877.2 509.25 877.7 507.86 868.53 503.41 868.02 504.8 877.2 509.25"/><polygon class="cls-22" points="861.37 513.82 862.75 510.06 851.72 504.68 850.34 508.45 861.37 513.82"/><polygon class="cls-2" points="864.89 512.77 885.2 522.64 885.71 521.25 865.39 511.38 864.89 512.77"/><polygon class="cls-2" points="872.63 520.75 873.13 519.36 863.96 514.9 863.46 516.29 872.63 520.75"/><polygon class="cls-22" points="856.81 525.32 858.18 521.55 847.16 516.17 845.78 519.95 856.81 525.32"/><polygon class="cls-2" points="860.33 524.27 880.63 534.13 881.14 532.75 860.83 522.88 860.33 524.27"/><polygon class="cls-2" points="868.07 532.24 868.57 530.85 859.4 526.4 858.9 527.79 868.07 532.24"/><path class="cls-6" d="M853,489.29l-5.69,3.21a3.41,3.41,0,0,1-4.62-1.29h0a3.4,3.4,0,0,1,1.29-4.62l5.69-3.21a3.41,3.41,0,0,1,4.62,1.29h0A3.41,3.41,0,0,1,853,489.29Z"/><path class="cls-6" d="M1269.54,532.91h0a8.62,8.62,0,0,0-10.58-6l-10.77,3a8.62,8.62,0,0,0-6,10.58h0a8.62,8.62,0,0,0,10.58,6l10.77-3A8.63,8.63,0,0,0,1269.54,532.91Z"/><rect class="cls-7" x="1259.35" y="529.96" width="16.91" height="7.37" transform="translate(856.13 1846.14) rotate(-95.41)"/><path class="cls-38" d="M1358.2,413.06a11.09,11.09,0,0,0-11.7,10.45c-1.87,33.05-4.8,70.09-6.92,82.59-17.9,6.11-54.4,12.85-70.32,15.49a1.55,1.55,0,0,0-1.29,1.71l2.12,18.92a1.57,1.57,0,0,0,1.83,1.39c9.88-1.64,61.38-10.5,81-18.84,7-3,8.08-9.79,9.77-23.72.94-7.73,1.93-18.32,3-31.47,1.75-22.26,3-44.59,3-44.82A11.09,11.09,0,0,0,1358.2,413.06Z"/><polygon class="cls-39" points="1246.03 653.62 1192.15 622.51 1271.72 576.57 1325.6 607.68 1246.03 653.62"/><polygon class="cls-40" points="1192.15 635.72 1192.15 622.51 1246.03 653.62 1325.6 607.68 1325.6 620.89 1246.03 666.83 1192.15 635.72"/><polygon class="cls-41" points="1192.15 635.72 1192.15 622.51 1246.03 653.62 1246.03 666.83 1192.15 635.72"/><path class="cls-42" d="M1236.29,654.81l8.78,5.22a1.81,1.81,0,0,0,1.85,0l15-9-15.15,7.74a1.8,1.8,0,0,1-1.57,0Z"/><polygon class="cls-10" points="1254.59 642.35 1260.32 639.04 1232.16 622.79 1226.43 626.1 1254.59 642.35"/><polygon class="cls-10" points="1229.57 621.31 1220.34 615.95 1214.61 619.25 1223.87 624.6 1229.57 621.31"/><polygon class="cls-22" points="1302.1 612.99 1296.29 609.63 1302.07 606.29 1307.88 609.65 1302.1 612.99"/><polygon class="cls-22" points="1292.91 618.3 1287.1 614.95 1292.88 611.61 1298.69 614.97 1292.91 618.3"/><polygon class="cls-22" points="1283.91 623.54 1278.09 620.19 1283.87 616.85 1289.68 620.21 1283.91 623.54"/><polygon class="cls-22" points="1274.36 629.15 1268.55 625.79 1274.33 622.46 1280.14 625.81 1274.36 629.15"/><polygon class="cls-43" points="1297.45 604.84 1264.44 585.78 1261.71 587.36 1294.72 606.41 1297.45 604.84"/><polygon class="cls-43" points="1288.55 610.33 1255.54 591.27 1252.82 592.85 1285.83 611.9 1288.55 610.33"/><polygon class="cls-43" points="1279.13 615.57 1246.11 596.51 1243.39 598.09 1276.4 617.14 1279.13 615.57"/><polygon class="cls-43" points="1270.23 621.97 1237.22 602.91 1234.5 604.49 1267.51 623.55 1270.23 621.97"/><polygon class="cls-22" points="1265.16 635.31 1259.35 631.96 1265.13 628.62 1270.94 631.98 1265.16 635.31"/><polygon class="cls-43" points="1261.04 628.14 1228.03 609.08 1225.3 610.65 1258.31 629.71 1261.04 628.14"/><polygon class="cls-33" points="1246.03 666.83 1289.68 666.83 1355.33 629.15 1325.6 620.89 1246.03 666.83"/><ellipse class="cls-43" cx="1389.77" cy="868.97" rx="45.88" ry="21.04"/><ellipse class="cls-44" cx="1366.96" cy="866.27" rx="21.3" ry="36.89" transform="translate(493.29 2228.51) rotate(-89.69)"/><polygon class="cls-44" points="1312.83 814.55 1330.19 867.76 1403.58 868.97 1420.33 817.68 1312.83 814.55"/><path class="cls-45" d="M1397.54,816.66l-16.75,51.08h0c-2.32,7.82-4.43,9.57-10.45,13a46,46,0,0,1-15,5.63c12.39,2.09,26.2-.26,35.9-5.86,6-3.47,9.5-5.24,10.44-12.81h0l16.75-51.08Z"/><ellipse class="cls-23" cx="1366.96" cy="811.16" rx="31.46" ry="54.49" transform="translate(548.39 2173.7) rotate(-89.69)"/><ellipse class="cls-46" cx="1366.58" cy="810.15" rx="27" ry="46.77" transform="translate(549.03 2172.32) rotate(-89.69)"/><path class="cls-8" d="M1368.48,794.24C1373.12,752.05,1409,682.7,1409,682.7c-46.24,13.72-49.29,59.42-49.29,59.42Z"/><path class="cls-8" d="M1358,757c4.87-42.16-15.52-117.6-15.52-117.6,42,23.68,34.82,68.91,34.82,68.91Z"/><path class="cls-8" d="M1428.88,706.07c-38.6,8.72-61.93,76.28-61.93,76.28v.14c-1.43-86.1-55.82-108.94-55.82-108.94,16.25,23.64,31.54,104.16,36.16,130.18a19.84,19.84,0,0,0,20.32,16.46c.55,0,1.11-.07,1.66-.14a19.61,19.61,0,0,0,16.84-15.93C1393.23,768.08,1428.88,706.07,1428.88,706.07Z"/><path class="cls-47" d="M1333.81,579.61a2.16,2.16,0,0,0-2.44-2.18h0l-2.53.22h-.33l-.93.09h0l-27.1,2.4a.5.5,0,0,0-.21,0l-2.94,1.89h0l-2.65,1.51,3.43.79h0l2.63.69a1.11,1.11,0,0,0,.32-.21l0,.12,25.32-2.23a1.3,1.3,0,0,1-.34.08h0l1.25-.1h0l.31-.05.88-.07h0a2.39,2.39,0,0,0,.54-.15l2.25-.2h0A2.72,2.72,0,0,0,1333.81,579.61Z"/><path class="cls-48" d="M1331.43,576.57h0l-4.85.43a2.72,2.72,0,0,0-2.47,2.62,2.18,2.18,0,0,0,2.44,2.18l4.86-.43h.05a2.72,2.72,0,0,0,2.46-2.62A2.17,2.17,0,0,0,1331.43,576.57Z"/><polygon class="cls-49" points="1328.89 581.64 1301.1 584.09 1300.62 581.39 1330.13 578.75 1328.89 581.64"/><path class="cls-50" d="M1300.62,581.39c.2-1.19-.87-.7-.15-2.09l27.66-2.46c1.84.34,2.28,1,2.12,1.9Z"/><path class="cls-34" d="M1328.58,576.8h0l-.93.08a2.19,2.19,0,0,1,2.18,2.25,2.74,2.74,0,0,1-2.46,2.67h0l1.25-.1h0C1331.08,581.45,1331.11,576.53,1328.58,576.8Z"/><path class="cls-34" d="M1329.78,579.17c0-1.36-.56-2.42-1.92-2.3l-.57.06h0l-.93.08c1.74-.08,2.25,4.59-.28,4.93h0l1.25-.1h0A2.74,2.74,0,0,0,1329.78,579.17Z"/><path class="cls-34" d="M1300.29,579.29l-5.25,3.39,5.71,1.49C1302.42,583.48,1301.72,579.06,1300.29,579.29Z"/><path class="cls-50" d="M1294.7,582.69l2.65-1.5s.34-.14.45.47.43.3.46,1-.14.84-.14.84Z"/><path class="cls-8" d="M1366.21,619.51c-6.47,3.74-17,3.72-23.52,0s-6.54-9.84-.07-13.58,17-3.72,23.52,0S1372.69,615.77,1366.21,619.51Z"/><rect class="cls-8" x="1337.79" y="586.01" width="33.26" height="26.69"/><path class="cls-10" d="M1361.25,585.87v26.69h0c0,2.47-1.59,4.94-4.84,6.81a20.64,20.64,0,0,1-6.73,2.35c5.71,1,12.17.25,16.67-2.35,3.26-1.87,4.86-4.34,4.84-6.81h0l-.14-26.36Z"/><path class="cls-51" d="M1366.21,592.82c-6.47,3.74-17,3.72-23.52,0s-6.54-9.84-.07-13.58,17-3.72,23.52,0S1372.69,589.08,1366.21,592.82Z"/><path class="cls-27" d="M1364.25,591.48c-5.35,3.09-14,3.08-19.44,0s-5.41-8.13-.06-11.22,14.06-3.08,19.44,0S1369.6,588.4,1364.25,591.48Z"/><path class="cls-50" d="M1364.19,585.1c-5.38-3.11-14.09-3.13-19.44,0a8.6,8.6,0,0,0-3.33,3.17,8.82,8.82,0,0,0,3.39,3.22c5.39,3.11,14.09,3.12,19.44,0a8.51,8.51,0,0,0,3.33-3.16A8.68,8.68,0,0,0,1364.19,585.1Z"/><path class="cls-52" d="M1344.75,591.48a8.51,8.51,0,0,1-3.33-3.16,7.35,7.35,0,0,1,1.59-1.93c4.65-.78,9.86-.12,13.51,2a8.51,8.51,0,0,1,3.33,3.16,4.81,4.81,0,0,1,.59,1.5c-.81.19-1.55.35-2.18.43C1353.61,594.25,1348.4,593.59,1344.75,591.48Z"/><path class="cls-8" d="M1364.76,598.28c1.88,1,4.74,1.85,5.4,4.14.54,1.92.15,4.65.14,6.63,0,1-.11,2,0,3l0,1.12c.71.88.72,1.13,0,.76-.81.1-2.78-1.32-3.52-1.71-2.43-1.26-4.59,2.42-2.15,3.68,1.78.93,4.32,2.74,6.44,2.5,3-.34,3.41-3.35,3.47-5.79.1-3.71.61-8.16-.24-11.81-.78-3.38-4.62-4.77-7.37-6.21-2.43-1.28-4.58,2.4-2.15,3.68Z"/><path class="cls-53" d="M1103.54,831.82C1073.84,814,1025.23,813.2,995,830s-30.74,44.88-1.05,62.69,77.78,18.63,108.61,2.15C1136.42,876.76,1133.23,849.63,1103.54,831.82Z"/><path class="cls-54" d="M1079,827.9c-28.2-16.92-74.37-17.68-103.12-1.71s-29.19,42.62-1,59.53,73.86,17.69,103.15,2C1110.26,870.58,1107.24,844.81,1079,827.9Z"/><path class="cls-55" d="M1078.05,810.36c-28.2-16.91-74.37-17.68-103.12-1.71s-29.19,42.62-1,59.54,73.87,17.69,103.15,2C1109.28,853,1106.25,827.27,1078.05,810.36Z"/><polyline class="cls-56" points="1008.31 821.97 999.94 850.71 1067.7 835.37"/><polygon class="cls-35" points="863.05 407.2 916.75 376.19 916.75 314.57 863.05 345.58 863.05 407.2"/><path class="cls-23" d="M874,393.51l34.47-21.08c.06-8.1-1.49-10.46-3-11a4.91,4.91,0,0,0-2.48.13,14.08,14.08,0,0,1-2.61.22c-.49,0-1,0-1.47.07h0a8.6,8.6,0,0,0-1.15.16l-.13,0v0l-.57.09h0l-.6-.3c-.06,0-.27-.2-.29-.12,0-.1,0-.27,0-.36,0-1,.09-2.05.14-3.08,0,0,0,0,0,0a12.66,12.66,0,0,0,1.2-2.66,13.69,13.69,0,0,0,.44-2c1.33-.86,1.75-3.08,2-4.57.17-1.19.46-4.09-.94-3.25,0-.18.06-.35.1-.5a20.39,20.39,0,0,0,.42-3,4.32,4.32,0,0,0-.46-2.38c-.12-.19-.31-.34-.55-.22a2.52,2.52,0,0,0,.16-.86c0-2.26-1.71-2.43-3-2.25a10.12,10.12,0,0,0-5.39,2.55,15.79,15.79,0,0,0-4.39,7,3.68,3.68,0,0,0-.19,1.09,2.93,2.93,0,0,0-.36.68,8.48,8.48,0,0,0-.57,3,11.93,11.93,0,0,0,.31,2.54c0,.12,0,.27.07.42-1.13.92-1,3.33-.93,4.29.13,1.35.45,3.25,1.91,2.36a3.63,3.63,0,0,0,1.58,2.94c0,1-.08,2-.13,3a3.76,3.76,0,0,1,0,.47,2.26,2.26,0,0,1-.23.29c-.32.42-.65.84-1,1.25l-2.17,2.34h0L883,372c-1.08,1.12-2.2,2.26-3,3.07a16.76,16.76,0,0,0-2.53,2.82h0c-1.67,2.47-3.44,9.38-3.44,13.48Zm10.46-35c0-.09,0-.21,0-.34C884.46,358.25,884.47,358.37,884.48,358.47Z"/><polygon class="cls-35" points="831.72 365.53 855.92 351.55 855.92 359.73 831.72 373.7 831.72 365.53"/><polygon class="cls-35" points="811.01 403.69 857.05 377.11 857.05 368.93 811.01 395.52 811.01 403.69"/><polygon class="cls-35" points="812.14 421.07 858.18 394.48 858.18 386.31 812.14 412.89 812.14 421.07"/><polygon class="cls-57" points="885.89 415.25 939.59 384.24 939.59 322.62 885.89 353.62 885.89 415.25"/><path class="cls-58" d="M163.51,425.92a39,39,0,0,1-.6,6.82,15.06,15.06,0,0,1-2.44,5.93,12.68,12.68,0,0,1-5.33,4.2,22.77,22.77,0,0,1-9.26,1.57,18,18,0,0,1-7.28-1.31,13.26,13.26,0,0,1-4.94-3.6,14.16,14.16,0,0,1-2.85-5.44,24.72,24.72,0,0,1-.9-6.82v-2.85h9.37v2.77a13.57,13.57,0,0,0,1.54,7.09c1,1.68,3,2.51,5.81,2.51a8.86,8.86,0,0,0,3.71-.67,5.44,5.44,0,0,0,2.33-2,8.16,8.16,0,0,0,1.16-3.26,29.39,29.39,0,0,0,.3-4.43V389.62h9.38Z"/><path class="cls-58" d="M203.33,388.34a24.87,24.87,0,0,1,10.76,2.25,24.05,24.05,0,0,1,8.06,6.08,27.09,27.09,0,0,1,5.07,8.92,34.26,34.26,0,0,1,0,21.68,27.09,27.09,0,0,1-5.07,8.92,23.56,23.56,0,0,1-8.06,6,27.3,27.3,0,0,1-21.52,0,23.6,23.6,0,0,1-8.07-6,27.07,27.07,0,0,1-5.06-8.92,34.26,34.26,0,0,1,0-21.68,27.07,27.07,0,0,1,5.06-8.92,24.09,24.09,0,0,1,8.07-6.08A24.87,24.87,0,0,1,203.33,388.34Zm0,7.65a15,15,0,0,0-7.39,1.73,14.56,14.56,0,0,0-5.06,4.61,21,21,0,0,0-2.89,6.56,30.39,30.39,0,0,0,0,15,21,21,0,0,0,2.89,6.57,14.56,14.56,0,0,0,5.06,4.61,16.74,16.74,0,0,0,14.78,0,14.56,14.56,0,0,0,5.06-4.61,21,21,0,0,0,2.89-6.57,30.71,30.71,0,0,0,0-15,21,21,0,0,0-2.89-6.56,14.56,14.56,0,0,0-5.06-4.61A15,15,0,0,0,203.33,396Z"/><path class="cls-58" d="M243.15,389.62h26q7.2,0,11.55,3.3t4.35,10a11.9,11.9,0,0,1-2,6.94,12.69,12.69,0,0,1-5.66,4.46v.15a11.72,11.72,0,0,1,7.5,4.69,15.5,15.5,0,0,1,2.55,9.11,15.33,15.33,0,0,1-1.13,5.89,12,12,0,0,1-3.52,4.73,18,18,0,0,1-6.15,3.15,30.53,30.53,0,0,1-8.93,1.16h-24.6ZM252.53,412h15.3a8.34,8.34,0,0,0,5.62-1.91,6.82,6.82,0,0,0,2.25-5.51q0-4-2-5.7a9.06,9.06,0,0,0-5.85-1.65h-15.3Zm0,23.48H269.1a9.36,9.36,0,0,0,6.64-2.21A8.17,8.17,0,0,0,278.1,427a7.8,7.8,0,0,0-2.36-6.11,9.57,9.57,0,0,0-6.64-2.14H252.53Z"/><path class="cls-58" d="M301.58,389.62H311v53.55h-9.37Z"/><path class="cls-58" d="M327.68,389.62h9.9L362,429.07h.15V389.62h8.92v53.55h-9.9l-24.37-39.38h-.23v39.38h-8.92Z"/><path class="cls-58" d="M387.83,389.62h38.55v8.1H397.2v14h27v7.65h-27v15.68h29.7v8.1H387.83Z"/></g></g></svg>