<svg xmlns="http://www.w3.org/2000/svg" viewBox="0 0 3197.47 1173.1"><defs><style>.cls-1,.cls-3{fill:#29295b;}.cls-2{fill:#226db1;}.cls-2,.cls-3,.cls-4{fill-rule:evenodd;}.cls-4,.cls-5{fill:#9dc6e9;}</style></defs><title>Fichier 1</title><g id="Calque_2" data-name="Calque 2"><g id="Layer_1" data-name="Layer 1"><path class="cls-1" d="M151.07,384.4c65.9,104.8,34.36,222.73,26.12,274.13-6.77,42-5.33,75.48,3.57,100.8a283.93,283.93,0,0,0,189.62,72A287.41,287.41,0,0,0,561.31,759c8.82-25.26,10.23-58.65,3.5-100.5C556.55,607.13,525,489.2,590.92,384.4c8.28-15.2,22.62-36.34,31.67-49.31,37.28-49.54,59.49-110.3,59.49-176.07A290.07,290.07,0,0,0,651.83,29.53C639,3.72,607-7.28,580.25,5.07s-38.07,43.35-25.32,69.18A189.15,189.15,0,0,1,574.73,159c0,97-73.08,177.88-168.87,193.92l-25.2,34.69a4.26,4.26,0,0,1-.51.54l42.07,305a12.08,12.08,0,0,1-2.56,9.07l-38,48a13.72,13.72,0,0,1-21.3,0l-38-48a12.06,12.06,0,0,1-2.58-9.07l42.07-305c-.17-.2-.37-.33-.53-.54l-25.18-34.69c-95.79-16-168.86-96.87-168.86-193.92a189.41,189.41,0,0,1,19.79-84.77c12.77-25.83,1.44-56.82-25.31-69.18S103,3.72,90.17,29.53A289.81,289.81,0,0,0,59.91,159c0,65.77,22.2,126.53,59.48,176.07C128.44,348.06,142.8,369.2,151.07,384.4Z"/><path class="cls-2" d="M982.44,1173.1c-6.79,0-13.15-2.71-18.89-8.06-28.31-26.41-278.26-270-282.29-274.56a18.53,18.53,0,0,1-.3-24.25l63.16-75a18.52,18.52,0,0,1,24.51-3.45c1.27.86,295.91,215.24,317.66,231.83,11.76,9,14.88,22.35,7.78,34.73-33.49,58.54-94.12,112.11-95.72,113.29A26.82,26.82,0,0,1,982.44,1173.1Z"/><path class="cls-3" d="M371,300.5c49.12,0,88.91-39.48,88.91-88.21S420.1,124.05,371,124.05s-88.92,39.51-88.92,88.24S321.88,300.5,371,300.5Z"/><path class="cls-4" d="M726.26,716.32s-17.68-15.53-18.81-16.78c.41-1.45,1.57-4.2,2.7-6.87l.27-.64c43-102.25,42-203.62-2.8-301.38a384.12,384.12,0,0,0-49.51-80.42,317.58,317.58,0,0,1-22.46,34.3c-1.92,2.76-4,5.82-6.11,8.92l0,0s-3.5,5.08-8.42,12.63l-.36.54v0c-7.59,11.67-18.32,28.95-25.05,43,0,0,13.19-21.25,28.79-37.36a304.47,304.47,0,0,1,53.11,172.47c0,168.68-137.75,305.92-307.18,306a306.37,306.37,0,0,1-252.93-478.5c15.61,16.12,28.86,37.43,28.86,37.43-6.73-14.07-17.45-31.33-25-43,0,0,0,0,0,0L119.51,364c-4.19-6.36-7-10.52-7-10.52h0c-2.09-3.09-4.19-6.14-6.11-8.89a320.47,320.47,0,0,1-22.8-34.92Q46.7,356.5,22.37,419.12C.84,474.66-5.2,534.7,4.47,597.59,19.83,697.62,68.07,779,147.83,839.4c65.56,49.68,139.88,74.85,220.93,74.85a417.7,417.7,0,0,0,47-2.72,354.08,354.08,0,0,0,165.3-62.84,17.29,17.29,0,0,1,1.87-1.18c.29.25.75.62,1.36,1.24,4,4,16,13.51,17.74,15a9.16,9.16,0,0,0,12.82-1.13l22.77-26.81,19.65,16.32A9.15,9.15,0,0,0,670.08,851l55.25-65.6a9.13,9.13,0,0,0-1.08-12.85L704.78,756l22.46-27A9.14,9.14,0,0,0,726.26,716.32Z"/><path class="cls-5" d="M268.64,188.83a375.6,375.6,0,0,0-70.49,26.85,221.74,221.74,0,0,1-13.52-28.12c4,20.67,14.18,43.34,14.18,43.34l.05-.07a180.08,180.08,0,0,0,27.43,43.35,302.69,302.69,0,0,1,48.2-20.7,103.41,103.41,0,0,1-5.85-64.65Z"/><path class="cls-5" d="M557.25,187.56a221.08,221.08,0,0,1-13.56,28.19A357.72,357.72,0,0,0,473,187.56a103.33,103.33,0,0,1-5.59,66,302.28,302.28,0,0,1,48.23,20.65,178.79,178.79,0,0,0,27.49-43.47C543.78,229.42,553.55,208.52,557.25,187.56Z"/><path class="cls-1" d="M1403.24,533.05a81.66,81.66,0,0,1-17.5,31.25q-12.26,13.76-32.5,22T1303,594.55q-50,0-77-26.25t-27-77.25v-22h47.5v15a150.8,150.8,0,0,0,2.5,28.5,61.63,61.63,0,0,0,8.75,22.5,41.23,41.23,0,0,0,17.5,14.75q11.25,5.25,28.75,5.25,32.51,0,44.75-17.5t12.25-47v-261h47.5v268A122.88,122.88,0,0,1,1403.24,533.05Z"/><path class="cls-1" d="M1527.24,337.8a177.2,177.2,0,0,1,32.25-59.75,157.53,157.53,0,0,1,53.5-41.5q32-15.5,74.5-15.5t74.5,15.5a157.53,157.53,0,0,1,53.5,41.5,177.2,177.2,0,0,1,32.25,59.75,234.91,234.91,0,0,1,0,140.5,177.11,177.11,0,0,1-32.25,59.75A154.58,154.58,0,0,1,1762,579.3q-32,15.26-74.5,15.25T1613,579.3a154.58,154.58,0,0,1-53.5-41.25,177.11,177.11,0,0,1-32.25-59.75,234.91,234.91,0,0,1,0-140.5ZM1571,461.3a144.68,144.68,0,0,0,22,47.25,112.44,112.44,0,0,0,38.5,33.75q23.51,12.75,56,12.75t56-12.75a112.44,112.44,0,0,0,38.5-33.75,144.68,144.68,0,0,0,22-47.25,206,206,0,0,0,0-106.5,144.68,144.68,0,0,0-22-47.25,112.44,112.44,0,0,0-38.5-33.75q-23.51-12.75-56-12.75t-56,12.75a112.44,112.44,0,0,0-38.5,33.75,144.68,144.68,0,0,0-22,47.25,206,206,0,0,0,0,106.5Z"/><path class="cls-1" d="M2096,229.55q11.49,0,24.75.25t26.25,1.5a203.21,203.21,0,0,1,24.25,3.75,61.32,61.32,0,0,1,19.25,7.5,93.14,93.14,0,0,1,29.75,29q12.24,18.51,12.25,45.5,0,28.5-13.75,49.25t-39.25,30.75v1q33,7,50.5,30t17.5,56a106.67,106.67,0,0,1-7,38,95.3,95.3,0,0,1-20.75,32.75,103.7,103.7,0,0,1-34,23q-20.25,8.76-46.75,8.75h-172.5v-357Zm13,153.5q40.5,0,58.25-14.25T2185,326.05q0-19-6-30a42.67,42.67,0,0,0-16.5-17,65,65,0,0,0-24.25-7.75,233.27,233.27,0,0,0-29.25-1.75h-95v113.5Zm24,163.5q31.5,0,49.25-17t17.75-47q0-17.49-6.5-29a50.6,50.6,0,0,0-17.25-18.25,72.47,72.47,0,0,0-24.75-9.5,150.45,150.45,0,0,0-29-2.75H2014v123.5Z"/><path class="cls-1" d="M2408.49,229.55v357H2361v-357Z"/><path class="cls-1" d="M2588.48,229.55l188,289.5h1V229.55h45v357h-52L2584,300.05h-1v286.5h-45v-357Z"/><path class="cls-1" d="M3196,229.55v40H2997v113.5h185.5v40H2997v123.5h200.5v40h-248v-357Z"/></g></g></svg>